<svg xmlns="http://www.w3.org/2000/svg" viewBox="0 0 20.93 20.83"><defs><style>.cls-1{fill:#fff;}</style></defs><title>i-actividades</title><g id="Layer_2" data-name="Layer 2"><g id="Modo_de_aislamiento" data-name="Modo de aislamiento"><path class="cls-1" d="M6.27,2.39A2.17,2.17,0,1,1,4.11,4.56,2.17,2.17,0,0,1,6.27,2.39Z"/><path class="cls-1" d="M9.37,4.56a3,3,0,0,1-.15,1h2.47a3.26,3.26,0,0,1-.15-1,3.12,3.12,0,0,1,.16-1h-.1V1.14a1.14,1.14,0,1,0-2.27,0V3.6H9.22A3.06,3.06,0,0,1,9.37,4.56Z"/><path class="cls-1" d="M20.89,16.37,19.52,4.44a1,1,0,0,0-.93-.84h-1a3.12,3.12,0,0,1,.15,1,2.94,2.94,0,0,1-.15.94h.17l1.18,10.17H17.89V14.55a1.14,1.14,0,0,0-1.16-1.14h-.22V9.36a1.86,1.86,0,1,0-3.71,0v4.05h-.25a1.15,1.15,0,0,0-1.17,1.14v1.13H9.53V14.55a1.14,1.14,0,0,0-1.16-1.14H8.14V9.36a1.86,1.86,0,1,0-3.71,0v4.05H4.18A1.15,1.15,0,0,0,3,14.55v1.13H2L3.15,5.51h.18a3,3,0,0,1-.15-1,3.11,3.11,0,0,1,.15-1h-1a.94.94,0,0,0-.92.84L0,16.49a.92.92,0,0,0,.23.73.9.9,0,0,0,.69.32H3v2.13a1.17,1.17,0,0,0,2.33,0V17.54H7.2v2.13a1.17,1.17,0,0,0,2.33,0V17.54h1.85v2.13a1.17,1.17,0,0,0,2.33,0V17.54h1.86v2.13a1.17,1.17,0,0,0,2.33,0V17.54H20a.93.93,0,0,0,.93-.93A.61.61,0,0,0,20.89,16.37Z"/><path class="cls-1" d="M14.64,2.39a2.17,2.17,0,1,1-2.17,2.17A2.17,2.17,0,0,1,14.64,2.39Z"/></g></g></svg>