<svg xmlns="http://www.w3.org/2000/svg" width="80.781" height="80.781" viewBox="0 0 80.781 80.781">
  <metadata><?xpacket begin="﻿" id="W5M0MpCehiHzreSzNTczkc9d"?>
<x:xmpmeta xmlns:x="adobe:ns:meta/" x:xmptk="Adobe XMP Core 5.6-c140 79.160451, 2017/05/06-01:08:21        ">
   <rdf:RDF xmlns:rdf="http://www.w3.org/1999/02/22-rdf-syntax-ns#">
      <rdf:Description rdf:about=""/>
   </rdf:RDF>
</x:xmpmeta>
                                                                                                    
                                                                                                    
                                                                                                    
                                                                                                    
                                                                                                    
                                                                                                    
                                                                                                    
                                                                                                    
                                                                                                    
                                                                                                    
                                                                                                    
                                                                                                    
                                                                                                    
                                                                                                    
                                                                                                    
                                                                                                    
                                                                                                    
                                                                                                    
                                                                                                    
                                                                                                    
                           
<?xpacket end="w"?></metadata>
<defs>
    <style>
      .cls-1 {
        fill: #fff;
        fill-rule: evenodd;
      }
    </style>
  </defs>
  <path id="i-aguanieve" class="cls-1" d="M65.643,26.16a25.259,25.259,0,0,0-47.9-5.049A17.672,17.672,0,0,0,18.17,56.45H66.137A15.149,15.149,0,1,0,65.643,26.16ZM66.137,51.4H18.17a12.623,12.623,0,0,1,0-25.246,4.929,4.929,0,0,1,.651.025,2.51,2.51,0,0,0,3-1.621A20.205,20.205,0,0,1,61,29.19,2.5,2.5,0,0,0,62,30.957a2.584,2.584,0,0,0,1.979.459,11.784,11.784,0,0,1,2.161-.212A10.1,10.1,0,0,1,66.137,51.4Zm0-50.492a15.246,15.246,0,0,0-14.6,11.022,2.523,2.523,0,1,0,4.852,1.383,10.11,10.11,0,1,1,9.745,12.84,9.38,9.38,0,0,1-2.146-.237,2.526,2.526,0,0,0-1.156,4.918,14.575,14.575,0,0,0,3.3.369A15.148,15.148,0,0,0,66.137.909ZM25.294,62.59a2.622,2.622,0,0,0-4.155,0c-1.651,2.388-5.494,8.306-5.494,11.532a7.574,7.574,0,1,0,15.148,0C30.793,70.9,26.951,64.978,25.294,62.59ZM23.219,76.647a2.528,2.528,0,0,1-2.525-2.52c0.02-.772,1.07-2.974,2.525-5.423,1.454,2.449,2.5,4.645,2.525,5.418A2.532,2.532,0,0,1,23.219,76.647ZM53.514,61.5a2.525,2.525,0,0,0-2.525,2.525V79.172a2.525,2.525,0,0,0,5.049,0V64.024A2.526,2.526,0,0,0,53.514,61.5Zm7.826,11.7L48.223,65.625A2.526,2.526,0,0,0,45.693,70l13.118,7.574a2.494,2.494,0,0,0,1.262.338A2.525,2.525,0,0,0,61.341,73.2Zm0.919-6.65a2.514,2.514,0,0,0-3.449-.924L45.693,73.2a2.525,2.525,0,1,0,2.525,4.373L61.336,70A2.517,2.517,0,0,0,62.26,66.549Z" transform="translate(-0.5 -0.906)"/>
</svg>
