<svg xmlns="http://www.w3.org/2000/svg" viewBox="0 0 23.55 25.12"><defs><style>.cls-1{fill:#fff;}</style></defs><title>i-calendar</title><g id="Layer_2" data-name="Layer 2"><g id="HOME_copia_2" data-name="HOME copia 2"><path class="cls-1" d="M7.85,9.42H11v3.14H7.85Zm4.71,0H15.7v3.14H12.56Zm4.71,0h3.14v3.14H17.27ZM3.14,18.84H6.28V22H3.14Zm4.71,0H11V22H7.85Zm4.71,0H15.7V22H12.56ZM7.85,14.13H11v3.14H7.85Zm4.71,0H15.7v3.14H12.56Zm4.71,0h3.14v3.14H17.27Zm-14.13,0H6.28v3.14H3.14ZM20.41,0V1.57H17.27V0h-11V1.57H3.14V0H0V25.12H23.55V0ZM22,23.55H1.57V6.28H22Z"/></g></g></svg>