<svg xmlns="http://www.w3.org/2000/svg" viewBox="0 0 63.25 46.61"><defs><style>.cls-1{fill:#0094cc;}</style></defs><title>i-cama</title><g id="Layer_2" data-name="Layer 2"><g id="Modo_de_aislamiento" data-name="Modo de aislamiento"><path class="cls-1" d="M61.75,46.61H57.61a1.5,1.5,0,0,1-1.5-1.5V40a1.54,1.54,0,0,1,.31-.92H6.83a1.48,1.48,0,0,1,.31.92v5.11a1.5,1.5,0,0,1-1.5,1.5H1.5A1.5,1.5,0,0,1,0,45.11V40a1.49,1.49,0,0,1,.61-1.21A1.49,1.49,0,0,1,0,37.58V29.79A1.49,1.49,0,0,1,.73,28.5a1.48,1.48,0,0,1-.34-2l.6-.91C5.5,18.7,17.5,14.2,31.58,14.13h.33c14,0,25.61,4.39,30.34,11.45l.6.9A1.47,1.47,0,0,1,62.92,28a1.43,1.43,0,0,1-.4.48,1.49,1.49,0,0,1,.73,1.29v7.79a1.49,1.49,0,0,1-.61,1.21A1.49,1.49,0,0,1,63.25,40v5.11A1.5,1.5,0,0,1,61.75,46.61Zm-2.64-3h1.14V41.5H59.11ZM3,43.61H4.14V41.5H3Zm0-7.53H60.25V31.29H3ZM4.58,25.81H58.64c-4.77-5.39-14.76-8.68-26.73-8.68h-.33C19.54,17.19,9.24,20.55,4.58,25.81Zm0-4.73A1.48,1.48,0,0,1,4,20.92a1.52,1.52,0,0,1-.82-1.34V7A1.52,1.52,0,0,1,4,5.62C11.71,2,21.22.05,31.51,0h.4C42.2,0,51.66,1.91,59.25,5.51a1.5,1.5,0,0,1,.86,1.35V19.54a1.5,1.5,0,0,1-2.38,1.21,29,29,0,0,0-6.06-3.32,1.49,1.49,0,0,1-.91-1.62l.39-2.51c-1.12-1.81-3.69-3.23-6.7-3.67s-5.58.16-7.08,1.51l-.26,1.66a1.53,1.53,0,0,1-1.57,1.27C34.31,14,33.09,14,31.91,14h-.33c-1.3,0-2.6,0-3.86.13a1.5,1.5,0,0,1-1.58-1.27l-.26-1.69c-1.51-1.35-4.17-1.93-7.09-1.51s-5.57,1.86-6.7,3.67l.41,2.6a1.49,1.49,0,0,1-.91,1.62A30.35,30.35,0,0,0,5.5,20.8,1.43,1.43,0,0,1,4.63,21.08ZM6.13,7.94v8.9a36.05,36.05,0,0,1,3.23-1.63l-.31-2a1.45,1.45,0,0,1,.14-.89c1.42-2.91,4.93-5.1,9.17-5.71s7.91.43,10,2.76a1.51,1.51,0,0,1,.38.78l.13.83Q30.22,11,31.57,11h.34c.8,0,1.62,0,2.44,0l.13-.81a1.54,1.54,0,0,1,.37-.78c2.13-2.32,5.87-3.35,10-2.76s7.75,2.8,9.18,5.71a1.52,1.52,0,0,1,.13.89l-.29,1.86a33.27,33.27,0,0,1,3.21,1.65V7.82C50.06,4.67,41.38,3,31.92,3h-.39C22.05,3.05,13.3,4.75,6.13,7.94Z"/></g></g></svg>