<svg xmlns="http://www.w3.org/2000/svg" viewBox="0 0 62.37 41.95"><defs><style>.cls-1{fill:#0094cc;}</style></defs><title>i-cafe</title><g id="Layer_2" data-name="Layer 2"><g id="Modo_de_aislamiento" data-name="Modo de aislamiento"><path class="cls-1" d="M42.83,38.61H13.88a1.67,1.67,0,1,0,0,3.34H42.83a1.67,1.67,0,0,0,0-3.34Z"/><path class="cls-1" d="M54.13,10.1c.31-3.89.44-7.64.46-8.38A1.64,1.64,0,0,0,54.13.51,1.66,1.66,0,0,0,52.93,0H1.67A1.65,1.65,0,0,0,.47.51,1.69,1.69,0,0,0,0,1.72c.05,1.4.48,13.71,1.77,17.07,2.51,6.55,8.69,17.52,21.93,17.52h7.2c9,0,14.69-5,18.23-10.32a8.62,8.62,0,1,0,5-15.89ZM50.3,14.71a15,15,0,0,1-.6,2.89q-.47,1.23-1.05,2.49a32.92,32.92,0,0,1-1.95,3.58c-3.19,5-8.15,9.3-15.8,9.3H23.7C13,33,7.58,24.61,4.89,17.6,4.16,15.69,3.63,8.46,3.41,3.34H51.19c-.1,2.24-.25,4.87-.46,7.29C50.6,12.12,50.46,13.53,50.3,14.71ZM53.75,24a5.24,5.24,0,0,1-2.9-.87,40.58,40.58,0,0,0,2-4.34,25.92,25.92,0,0,0,1-5.37A5.29,5.29,0,0,1,53.75,24Z"/></g></g></svg>