<svg xmlns="http://www.w3.org/2000/svg" viewBox="0 0 65.66 49.55"><defs><style>.cls-1{fill:#0094cc;}</style></defs><title>i-cajeros</title><g id="Layer_2" data-name="Layer 2"><g id="Modo_de_aislamiento" data-name="Modo de aislamiento"><path class="cls-1" d="M2.08,3.05h56a1.53,1.53,0,0,0,0-3h-56a1.53,1.53,0,1,0,0,3.05Z"/><path class="cls-1" d="M53.64,25.75a2.08,2.08,0,1,0,2.07,2.08A2.08,2.08,0,0,0,53.64,25.75Z"/><path class="cls-1" d="M61.42,21.46V8.75a3.86,3.86,0,0,0-3.86-3.86H3.86A3.86,3.86,0,0,0,0,8.75V45.69a3.86,3.86,0,0,0,3.86,3.86h53.7a3.86,3.86,0,0,0,3.86-3.86V34.82A4.13,4.13,0,0,0,65.66,31V25.32A4.13,4.13,0,0,0,61.42,21.46Zm-3,24.23a.82.82,0,0,1-.82.82H3.86a.82.82,0,0,1-.81-.82V8.75a.82.82,0,0,1,.81-.82h53.7a.82.82,0,0,1,.82.82V21.46H51.32A4.13,4.13,0,0,0,47,25.32V31a4.13,4.13,0,0,0,4.36,3.86h7.06ZM62.61,31c0,.38-.56.81-1.31.81h-10c-.75,0-1.32-.43-1.32-.81V25.32c0-.38.57-.81,1.32-.81h10c.75,0,1.31.43,1.31.81Z"/></g></g></svg>