<svg xmlns="http://www.w3.org/2000/svg" viewBox="0 0 47.84 47.84"><defs><style>.cls-1{fill:#0094cc;}.cls-2{fill:none;stroke:#0094cc;stroke-linecap:round;stroke-linejoin:round;stroke-width:4px;}</style></defs><title>i-centros-ayuda</title><g id="Layer_2" data-name="Layer 2"><g id="Modo_de_aislamiento" data-name="Modo de aislamiento"><path class="cls-1" d="M27.41,37.45h-7a.83.83,0,0,1-.83-.83V28H11.87a.83.83,0,0,1-.83-.83V20.71a.83.83,0,0,1,.83-.83H19.6V11.23a.84.84,0,0,1,.83-.84h7a.84.84,0,0,1,.83.84v8.65H36a.83.83,0,0,1,.83.83v6.42A.83.83,0,0,1,36,28H28.24v8.66A.83.83,0,0,1,27.41,37.45Zm-6.15-1.66h5.32V27.13a.83.83,0,0,1,.83-.83h7.73V21.54H27.41a.83.83,0,0,1-.83-.83V12.05H21.26v8.66a.83.83,0,0,1-.83.83H12.7V26.3h7.73a.83.83,0,0,1,.83.83Z"/><rect class="cls-2" x="2" y="2" width="43.84" height="43.84" rx="5.75" ry="5.75"/></g></g></svg>