<svg 
 xmlns="http://www.w3.org/2000/svg"
 xmlns:xlink="http://www.w3.org/1999/xlink"
 width="25px" height="25px">
<path fill-rule="evenodd"  fill="rgb(255, 255, 255)"
 d="M7.551,9.869 L5.876,11.543 L11.259,16.926 L23.220,4.965 L21.545,3.290 L11.259,13.576 L7.551,9.869 ZM22.023,12.141 C22.023,17.404 17.718,21.710 12.455,21.710 C7.192,21.710 2.886,17.404 2.886,12.141 C2.886,6.879 7.192,2.573 12.455,2.573 C13.412,2.573 14.249,2.692 15.086,2.931 L17.000,1.018 C15.565,0.539 14.010,0.181 12.455,0.181 C5.876,0.181 0.494,5.563 0.494,12.141 C0.494,18.720 5.876,24.102 12.455,24.102 C19.033,24.102 24.416,18.720 24.416,12.141 L22.023,12.141 Z"/>
</svg>