<svg xmlns="http://www.w3.org/2000/svg" viewBox="0 0 52.22 52.36"><defs><style>.cls-1{fill:#0094cc;}</style></defs><title>i-equipo-esqui</title><g id="Layer_2" data-name="Layer 2"><g id="Modo_de_aislamiento" data-name="Modo de aislamiento"><path class="cls-1" d="M23.54,7.32V1.2A1.18,1.18,0,0,0,22.38,0H12.63a1.18,1.18,0,0,0-1.15,1.2V7.32a1.18,1.18,0,0,0,1.15,1.21h9.75A1.19,1.19,0,0,0,23.54,7.32Zm-2.31-1.2H13.79V2.4h7.44Z"/><path class="cls-1" d="M40.74,7.32V1.2A1.17,1.17,0,0,0,39.59,0H29.84a1.18,1.18,0,0,0-1.16,1.2V7.32a1.19,1.19,0,0,0,1.16,1.21h9.75A1.18,1.18,0,0,0,40.74,7.32Zm-2.31-1.2H31V2.4h7.43Z"/><path class="cls-1" d="M26.11,17a3.79,3.79,0,0,0-3.58,4v7.33a3.79,3.79,0,0,0,3.58,4,3.79,3.79,0,0,0,3.59-4V21A3.79,3.79,0,0,0,26.11,17Zm1.27,11.29a1.43,1.43,0,0,1-1.27,1.55,1.43,1.43,0,0,1-1.27-1.55V21a1.43,1.43,0,0,1,1.27-1.55A1.43,1.43,0,0,1,27.38,21Z"/><path class="cls-1" d="M17.22,11.48H13a2.33,2.33,0,0,0-2.21,1.69L3,39.4a1.24,1.24,0,0,0-.23.72v.06L.1,49.25a2.51,2.51,0,0,0,.35,2.13,2.28,2.28,0,0,0,1.86,1H17.22A2.37,2.37,0,0,0,19.54,50V13.88A2.37,2.37,0,0,0,17.22,11.48ZM13,13.88h4.21v25H5.59ZM2.31,50l2.56-8.64H17.22V50Z"/><path class="cls-1" d="M52.12,49.25,41.42,13.17a2.33,2.33,0,0,0-2.21-1.69H35a2.36,2.36,0,0,0-2.31,2.4V50A2.36,2.36,0,0,0,35,52.36H49.91a2.26,2.26,0,0,0,1.86-1A2.44,2.44,0,0,0,52.12,49.25ZM39.21,13.88l7.43,25H35v-25ZM35,50V41.32H47.35L49.91,50Z"/></g></g></svg>