<svg xmlns="http://www.w3.org/2000/svg" viewBox="0 0 17.67 16.47"><defs><style>.cls-1{fill:#fff;}</style></defs><title>i-estacionamiento</title><g id="Layer_2" data-name="Layer 2"><g id="Modo_de_aislamiento" data-name="Modo de aislamiento"><path class="cls-1" d="M17.67,12.05V7.63a1.18,1.18,0,0,0-1.2-1.2h-.2a.4.4,0,0,1-.41-.29l-1.4-4.89v0A2,2,0,0,0,12.61,0H5.06A2,2,0,0,0,3.21,1.21v0L1.81,6.14a.47.47,0,0,1-.4.29h-.2A1.18,1.18,0,0,0,0,7.63v4.42a1.18,1.18,0,0,0,1.21,1.2v2a1.19,1.19,0,0,0,1.2,1.21h.8a1.19,1.19,0,0,0,1.21-1.21v-2h8.83v2a1.2,1.2,0,0,0,1.21,1.21h.8a1.2,1.2,0,0,0,1.21-1.21v-2A1.18,1.18,0,0,0,17.67,12.05ZM3.61,15.26a.38.38,0,0,1-.4.4h-.8a.38.38,0,0,1-.4-.4v-2h1.6v2Zm12.05,0a.38.38,0,0,1-.4.4h-.8a.38.38,0,0,1-.4-.4v-2h1.6v2Zm1.21-3.21a.38.38,0,0,1-.4.4H1.21a.38.38,0,0,1-.41-.4V7.63a.38.38,0,0,1,.41-.4h.2a1.24,1.24,0,0,0,1.16-.88L4,1.49A1.2,1.2,0,0,1,5.06.8h7.55a1.2,1.2,0,0,1,1.09.69l1.4,4.86a1.24,1.24,0,0,0,1.17.88h.2a.38.38,0,0,1,.4.4v4.42Z"/><path class="cls-1" d="M3.61,8A1.61,1.61,0,1,0,5.22,9.64,1.61,1.61,0,0,0,3.61,8Zm0,2.41a.8.8,0,1,1,.81-.8A.8.8,0,0,1,3.61,10.44Z"/><path class="cls-1" d="M14.06,8a1.61,1.61,0,1,0,1.6,1.61A1.62,1.62,0,0,0,14.06,8Zm0,2.41a.8.8,0,1,1,0-1.6.8.8,0,1,1,0,1.6Z"/><path class="cls-1" d="M9.64,10H8a.4.4,0,0,0,0,.8H9.64a.4.4,0,0,0,0-.8Z"/><path class="cls-1" d="M10.44,8.43H7.23a.41.41,0,0,0,0,.81h3.21a.41.41,0,0,0,0-.81Z"/><path class="cls-1" d="M5,6.43h7.75a.82.82,0,0,0,.64-.33.78.78,0,0,0,.12-.72l-1-3.21a.78.78,0,0,0-.76-.56H5.94a.77.77,0,0,0-.76.56l-1,3.21a.78.78,0,0,0,.12.72A.82.82,0,0,0,5,6.43Zm1-4h5.83l1,3.21H5Z"/></g></g></svg>