<svg xmlns="http://www.w3.org/2000/svg" viewBox="0 0 57.59 48.23"><defs><style>.cls-1{fill:none;stroke:#0094cc;stroke-linecap:round;stroke-linejoin:round;stroke-width:3px;}</style></defs><title>i-estacionamientos</title><g id="Layer_2" data-name="Layer 2"><g id="Modo_de_aislamiento" data-name="Modo de aislamiento"><path class="cls-1" d="M56.09,26.63a7.12,7.12,0,0,0-.68-3c0-.24-.1-.48-.16-.72L50.51,11.12l0-.11c-1.66-4.94-4-9.51-10-9.51H17.58c-6.13,0-8.3,4.68-10,9.49l-5,11.78A7.28,7.28,0,0,0,1.5,26.63v3.65a6.9,6.9,0,0,0,.2,1.65,2.79,2.79,0,0,0-.2,1V43.84a2.89,2.89,0,0,0,2.89,2.89h6a2.89,2.89,0,0,0,2.89-2.89V38.41h31.4v5.43a2.88,2.88,0,0,0,2.88,2.89h5.66a2.88,2.88,0,0,0,2.88-2.89V33a3,3,0,0,0-.19-1,6.9,6.9,0,0,0,.19-1.65V26.63Zm-45-14.47c1.88-5.32,3.4-6.95,6.47-6.95H40.47c3.05,0,4.74,1.82,6.47,6.93l3.46,7a10.78,10.78,0,0,0-3.68-.65H10.87A10.38,10.38,0,0,0,7.54,19Zm3,19.51H7.75a2.06,2.06,0,1,1,0-4.12h6.33a2.06,2.06,0,0,1,0,4.12Zm22.33-.41H21.71a1.31,1.31,0,1,1,0-2.61h14.7a1.31,1.31,0,1,1,0,2.61Zm13.27.41H43.36a2.06,2.06,0,1,1,0-4.12h6.32a2.06,2.06,0,1,1,0,4.12Z"/></g></g></svg>