<svg xmlns="http://www.w3.org/2000/svg" viewBox="0 0 26.06 10.59"><defs><style>.cls-1{fill:#fff;}</style></defs><title>i-esqui</title><g id="Layer_2" data-name="Layer 2"><g id="Modo_de_aislamiento" data-name="Modo de aislamiento"><path class="cls-1" d="M21.54,1.76A7.32,7.32,0,0,0,19.43.81,23.07,23.07,0,0,0,13,0,23,23,0,0,0,6.64.81a7.39,7.39,0,0,0-2.12,1,2.12,2.12,0,0,0-1,1.73V6A3.57,3.57,0,0,0,5.2,8.93a10.51,10.51,0,0,0,3.88,1.63l.19,0a.87.87,0,0,0,.54-.19L13,7.88l3.22,2.52a.87.87,0,0,0,.73.16,10.51,10.51,0,0,0,3.88-1.63A3.59,3.59,0,0,0,22.59,6V3.49A2.12,2.12,0,0,0,21.54,1.76ZM20.85,6c0,1.05-1.57,2.16-3.86,2.75L13.57,6.09A.85.85,0,0,0,13,5.9a.8.8,0,0,0-.53.19L9.07,8.77C6.78,8.18,5.21,7.07,5.21,6V3.5c0-.12.49-.63,2.14-1.09A22,22,0,0,1,13,1.74a21.91,21.91,0,0,1,5.68.67c1.65.46,2.1,1,2.14,1.09Z"/><path class="cls-1" d="M.87,2.62A.87.87,0,0,0,0,3.49V6A.87.87,0,0,0,1.74,6V3.49A.87.87,0,0,0,.87,2.62Z"/><path class="cls-1" d="M25.2,2.62a.86.86,0,0,0-.87.87V6a.87.87,0,1,0,1.73,0V3.49A.87.87,0,0,0,25.2,2.62Z"/></g></g></svg>