<svg xmlns="http://www.w3.org/2000/svg" viewBox="0 0 47.96 14.38"><defs><style>.cls-1{fill:#fff;}</style></defs><title>i-info</title><g id="Layer_2" data-name="Layer 2"><g id="HOME_copia_2" data-name="HOME copia 2"><path class="cls-1" d="M5.87,3.71V8.15h4.27V9.68H5.87v4.48H4.26V9.68H0V8.15H4.26V3.71Z"/><path class="cls-1" d="M18.79.92V14.16H16.38V.92Z"/><path class="cls-1" d="M21.58,7.45c0-1.1,0-2-.08-2.85h2.12L23.74,6h.06a3.44,3.44,0,0,1,3.05-1.65c1.67,0,3.39,1.08,3.39,4.11v5.67H27.83V8.76c0-1.37-.51-2.41-1.83-2.41a2,2,0,0,0-1.88,1.41,2.44,2.44,0,0,0-.1.79v5.61H21.58Z"/><path class="cls-1" d="M33.09,14.16V6.4h-1.3V4.6h1.3V4.18A4.46,4.46,0,0,1,34.25.92,3.69,3.69,0,0,1,36.74,0a4.58,4.58,0,0,1,1.55.24L38.12,2.1a2.81,2.81,0,0,0-1-.17c-1.2,0-1.61,1-1.61,2.18V4.6h2.1V6.4H35.51v7.76Z"/><path class="cls-1" d="M48,9.29a4.74,4.74,0,0,1-4.91,5.09,4.63,4.63,0,0,1-4.8-4.93,4.73,4.73,0,0,1,5-5.07A4.59,4.59,0,0,1,48,9.29Zm-7.21.1c0,1.85.9,3.24,2.38,3.24s2.33-1.35,2.33-3.28c0-1.49-.66-3.2-2.31-3.2S40.75,7.8,40.75,9.39Z"/></g></g></svg>