<svg xmlns="http://www.w3.org/2000/svg" width="74.094" height="74.125" viewBox="0 0 74.094 74.125">
  <metadata><?xpacket begin="﻿" id="W5M0MpCehiHzreSzNTczkc9d"?>
<x:xmpmeta xmlns:x="adobe:ns:meta/" x:xmptk="Adobe XMP Core 5.6-c140 79.160451, 2017/05/06-01:08:21        ">
   <rdf:RDF xmlns:rdf="http://www.w3.org/1999/02/22-rdf-syntax-ns#">
      <rdf:Description rdf:about=""/>
   </rdf:RDF>
</x:xmpmeta>
                                                                                                    
                                                                                                    
                                                                                                    
                                                                                                    
                                                                                                    
                                                                                                    
                                                                                                    
                                                                                                    
                                                                                                    
                                                                                                    
                                                                                                    
                                                                                                    
                                                                                                    
                                                                                                    
                                                                                                    
                                                                                                    
                                                                                                    
                                                                                                    
                                                                                                    
                                                                                                    
                           
<?xpacket end="w"?></metadata>
<defs>
    <style>
      .cls-1 {
        fill: #fff;
        fill-rule: evenodd;
      }
    </style>
  </defs>
  <path id="Forma_1" data-name="Forma 1" class="cls-1" d="M74.282,27.226a16.06,16.06,0,0,0-19.3-11.965,16.06,16.06,0,0,0-32.1.8v0.247a12.247,12.247,0,0,0-2.471-.247A12.388,12.388,0,0,0,8.48,25.2a11.117,11.117,0,0,0,3.281,21.741H58.7c0.458,0,.9-0.014,1.339-0.053A16.06,16.06,0,0,0,74.282,27.226Zm-14.455,17.2c-0.371.035-.741,0.044-1.123,0.044H11.761A8.647,8.647,0,0,1,9.792,27.408a1.235,1.235,0,0,0,.933-0.959,9.9,9.9,0,0,1,9.684-7.916,9.372,9.372,0,0,1,3.385.609,1.235,1.235,0,0,0,1.669-1.32,12.87,12.87,0,0,1-.112-1.759,13.589,13.589,0,0,1,27.178,0c0,0.266-.011.531-0.023,0.8a1.235,1.235,0,0,0,1.652,1.217A13.39,13.39,0,0,1,58.7,17.3,13.588,13.588,0,0,1,59.827,44.431ZM28.9,59.928a1.286,1.286,0,0,0-2.154,0c-0.646,1.15-3.864,7-3.864,9.252a4.941,4.941,0,0,0,9.883,0C32.762,66.925,29.55,61.078,28.9,59.928ZM27.82,71.651A2.471,2.471,0,0,1,25.35,69.18a23.519,23.519,0,0,1,2.471-6.038,23.515,23.515,0,0,1,2.471,6.038A2.471,2.471,0,0,1,27.82,71.651ZM48.663,59.928a1.286,1.286,0,0,0-2.154,0c-0.652,1.15-3.864,7-3.864,9.252a4.941,4.941,0,0,0,9.883,0C52.528,66.925,49.316,61.078,48.663,59.928ZM47.586,71.651a2.471,2.471,0,0,1-2.471-2.471,23.519,23.519,0,0,1,2.471-6.038,23.515,23.515,0,0,1,2.471,6.038A2.471,2.471,0,0,1,47.586,71.651Zm-8.806-21.6a1.286,1.286,0,0,0-2.155,0c-0.646,1.15-3.864,7-3.864,9.252a4.941,4.941,0,0,0,9.883,0C42.645,57.043,39.433,51.2,38.781,50.046ZM37.7,61.769A2.471,2.471,0,0,1,35.233,59.3,23.515,23.515,0,0,1,37.7,53.26,23.519,23.519,0,0,1,40.174,59.3,2.471,2.471,0,0,1,37.7,61.769ZM19.015,50.046a1.286,1.286,0,0,0-2.155,0C16.214,51.2,13,57.043,13,59.3a4.941,4.941,0,0,0,9.883,0C22.879,57.043,19.667,51.2,19.015,50.046ZM17.938,61.769A2.471,2.471,0,0,1,15.467,59.3a23.515,23.515,0,0,1,2.471-6.038A23.519,23.519,0,0,1,20.408,59.3,2.471,2.471,0,0,1,17.938,61.769ZM58.546,50.046a1.286,1.286,0,0,0-2.154,0c-0.652,1.15-3.864,7-3.864,9.252a4.941,4.941,0,0,0,9.883,0C62.41,57.043,59.2,51.2,58.546,50.046ZM57.469,61.769A2.471,2.471,0,0,1,55,59.3a23.515,23.515,0,0,1,2.471-6.038A23.519,23.519,0,0,1,59.94,59.3,2.471,2.471,0,0,1,57.469,61.769Z" transform="translate(-0.625)"/>
</svg>
