<svg xmlns="http://www.w3.org/2000/svg" viewBox="0 0 56.74 25.97"><defs><style>.cls-1{fill:none;stroke:#fff;stroke-miterlimit:10;}</style></defs><title>i-montana</title><g id="Layer_2" data-name="Layer 2"><g id="HOME_copia_2" data-name="HOME copia 2"><path class="cls-1" d="M42,12.35,37.9,16.29,27.17.88l-7.55,11-3.26-3.6L1.12,25.47l9.26,0,18.17-.08h3.2l12.41-.05,11.33,0Zm-25.2,5.81v-1l-1.42,1-.64-.41-.65.71-1-.71-1.23.72.81-1.59L8.79,19.44l7.58-8.53,1.39,1.54-.54,1,.3.88h1l-.17,1.41,1.33-1.16.53.58ZM31.7,13.91l-.81.89-1.48-1.69-2.58,3.41L27,15.11l1.54-4.84-2.31,3.6-2.26,1.26.78-1.72-.53-.53L22.35,15,20.6,13l6.58-9.62,2.07,3-2,3.6,2.5-2.85.87,1.17-.94,2.19,1.14-1.2.91,1.29L30.17,12.4ZM43.28,20.6l1-2.61-1,.41-.84-.4-1.9.83.88-.91-.22-.4-1.61,1.31-.83-1.19,3.14-3,1,.93-.52.91.2.19.73-.7L45.57,18Z"/></g></g></svg>