<svg xmlns="http://www.w3.org/2000/svg" viewBox="0 0 52.11 51.77"><defs><style>.cls-1{fill:#fff;}</style></defs><title>i-nevada</title><g id="Layer_2" data-name="Layer 2"><g id="Capa_1" data-name="Capa 1"><path class="cls-1" d="M44.3,42.78a2.41,2.41,0,1,1-2.41-2.4,2.4,2.4,0,0,1,2.41,2.4Z"/><path class="cls-1" d="M33.81,42.78a2.4,2.4,0,1,1-2.4-2.4,2.39,2.39,0,0,1,2.4,2.4Z"/><path class="cls-1" d="M23.26,42.78a2.41,2.41,0,1,1-2.41-2.4,2.4,2.4,0,0,1,2.41,2.4Z"/><path class="cls-1" d="M12.77,42.78a2.4,2.4,0,1,1-2.4-2.4,2.39,2.39,0,0,1,2.4,2.4Z"/><path class="cls-1" d="M39.08,49.37A2.41,2.41,0,1,1,36.67,47a2.41,2.41,0,0,1,2.41,2.4Z"/><path class="cls-1" d="M28.52,49.37a2.4,2.4,0,1,1-2.4-2.4,2.4,2.4,0,0,1,2.4,2.4Z"/><path class="cls-1" d="M18,49.37a2.41,2.41,0,1,1-2.4-2.4,2.41,2.41,0,0,1,2.4,2.4Z"/><path class="cls-1" d="M38.74,8.86l-.82,0A14.77,14.77,0,0,0,24.37,0,14.54,14.54,0,0,0,9.71,14.37v.09a10.31,10.31,0,0,0,.81,20.61H38.74A13.25,13.25,0,0,0,52.11,22,13.25,13.25,0,0,0,38.74,8.86Zm0,22.78H10.52a6.89,6.89,0,1,1,.84-13.72,1.73,1.73,0,0,0,1.43-.51A1.69,1.69,0,0,0,13.26,16a10.94,10.94,0,0,1-.12-1.59A11.1,11.1,0,0,1,24.37,3.43a11.25,11.25,0,0,1,10.76,7.81,1.71,1.71,0,0,0,1.93,1.19,10.48,10.48,0,0,1,1.68-.14A9.82,9.82,0,0,1,48.68,22a9.82,9.82,0,0,1-9.94,9.67Z"/></g></g></svg>