<svg xmlns="http://www.w3.org/2000/svg" viewBox="0 0 45.24 27.62"><defs><style>.cls-1{fill:none;stroke:#fff;stroke-linecap:round;stroke-linejoin:round;stroke-width:2.5px;}</style></defs><title>i-nosotros</title><g id="Layer_2" data-name="Layer 2"><g id="HOME_copia_2" data-name="HOME copia 2"><path class="cls-1" d="M22.61,12.64A5.7,5.7,0,1,0,16.93,7,5.69,5.69,0,0,0,22.61,12.64Z"/><path class="cls-1" d="M27.18,13.57H18.06a3.17,3.17,0,0,0-3,3.33v9.17c0,.1.05.19.05.3h15c0-.11.05-.2.05-.3V16.9A3.16,3.16,0,0,0,27.18,13.57Z"/><path class="cls-1" d="M37.94,15.36a4.57,4.57,0,1,0-4.55-4.56A4.55,4.55,0,0,0,37.94,15.36Z"/><path class="cls-1" d="M41.61,16.1H34.29a2.55,2.55,0,0,0-2.38,2.68v7.35c0,.08,0,.15,0,.24h12c0-.09.05-.16.05-.24V18.78A2.55,2.55,0,0,0,41.61,16.1Z"/><path class="cls-1" d="M7.29,15.36A4.57,4.57,0,1,0,2.73,10.8a4.56,4.56,0,0,0,4.56,4.56Z"/><path class="cls-1" d="M11,16.1H3.63a2.55,2.55,0,0,0-2.38,2.68v7.35c0,.08,0,.15.05.24h12c0-.09,0-.16,0-.24V18.78A2.55,2.55,0,0,0,11,16.1Z"/></g></g></svg>