<svg xmlns="http://www.w3.org/2000/svg" width="70.969" height="55.438" viewBox="0 0 70.969 55.438">
  <metadata><?xpacket begin="﻿" id="W5M0MpCehiHzreSzNTczkc9d"?>
<x:xmpmeta xmlns:x="adobe:ns:meta/" x:xmptk="Adobe XMP Core 5.6-c140 79.160451, 2017/05/06-01:08:21        ">
   <rdf:RDF xmlns:rdf="http://www.w3.org/1999/02/22-rdf-syntax-ns#">
      <rdf:Description rdf:about=""/>
   </rdf:RDF>
</x:xmpmeta>
                                                                                                    
                                                                                                    
                                                                                                    
                                                                                                    
                                                                                                    
                                                                                                    
                                                                                                    
                                                                                                    
                                                                                                    
                                                                                                    
                                                                                                    
                                                                                                    
                                                                                                    
                                                                                                    
                                                                                                    
                                                                                                    
                                                                                                    
                                                                                                    
                                                                                                    
                                                                                                    
                           
<?xpacket end="w"?></metadata>
<defs>
    <style>
      .cls-1 {
        fill: #fff;
        fill-rule: evenodd;
      }
    </style>
  </defs>
  <path id="Forma_1" data-name="Forma 1" class="cls-1" d="M55.121,22.031a8.868,8.868,0,0,0-13.969-4.656,20.177,20.177,0,0,1,2.439,3.176A14.428,14.428,0,0,1,55.121,22.031ZM62.1,24.406a2.222,2.222,0,0,1,2.239-2.218h4.392a2.218,2.218,0,1,1,0,4.436H64.343A2.216,2.216,0,0,1,62.1,24.406Zm-4.5,8.863A9.981,9.981,0,0,0,41.475,26.56a15.525,15.525,0,0,0-30.387,4.491,15.294,15.294,0,0,0,.193,2.448A8.874,8.874,0,0,0,13.3,51.013H57.666a8.872,8.872,0,0,0,0-17.743H57.6ZM37.718,14.463a13.315,13.315,0,0,1,22,11.985A14.459,14.459,0,0,1,61.177,29.3a13.31,13.31,0,0,1-3.517,26.145H13.306A13.308,13.308,0,0,1,6.657,30.614,19.961,19.961,0,0,1,37.718,14.463Zm19.836-1.041a2.222,2.222,0,0,1,.015-3.151l3.106-3.107A2.218,2.218,0,1,1,63.81,10.3L60.7,13.407A2.218,2.218,0,0,1,57.553,13.423ZM46.571,8.872a2.223,2.223,0,0,1-2.218-2.24V2.24a2.218,2.218,0,1,1,4.435,0V6.632A2.215,2.215,0,0,1,46.571,8.872Z"/>
</svg>
