<svg xmlns="http://www.w3.org/2000/svg" viewBox="0 0 28.55 27.99"><defs><style>.cls-1{fill:#fff;}</style></defs><title>i-plato0</title><g id="Layer_2" data-name="Layer 2"><g id="Modo_de_aislamiento" data-name="Modo de aislamiento"><path class="cls-1" d="M23.91,14.7a2.56,2.56,0,0,1-.33-.48,8.39,8.39,0,1,1-.21-2l.76-5.65V6.48A11.78,11.78,0,0,0,7.8,5V7.67a4.61,4.61,0,0,1-2.14,3.89v9.52A11.78,11.78,0,0,0,25,20.62V15.44A2.48,2.48,0,0,1,23.91,14.7Z"/><path class="cls-1" d="M15.18,7.17a7,7,0,1,0,7,7A7,7,0,0,0,15.18,7.17Z"/><path class="cls-1" d="M28.51,1.1A1.09,1.09,0,0,0,26.33,1L24.72,12.89a1.1,1.1,0,0,0,1.09,1.25h.64v12.8a1.05,1.05,0,1,0,2.1,0Z"/><path class="cls-1" d="M6.37,1.33a.72.72,0,0,0-1.43,0v4h-1V1.33a.72.72,0,0,0-1.43,0v4h-1V1.33A.72.72,0,0,0,0,1.33V7.77a3.18,3.18,0,0,0,2.14,3V26.94a1,1,0,1,0,2.09,0V10.77a3.17,3.17,0,0,0,2.14-3Z"/></g></g></svg>