<svg xmlns="http://www.w3.org/2000/svg" viewBox="0 0 54.33 54.33"><defs><style>.cls-1{fill:#fff;}</style></defs><title>i-soleado</title><g id="Layer_2" data-name="Layer 2"><g id="Capa_1" data-name="Capa 1"><path class="cls-1" d="M27.16,45.35a1.85,1.85,0,0,0-1.85,1.86v5.27a1.86,1.86,0,0,0,3.71,0V47.21a1.86,1.86,0,0,0-1.86-1.86Z"/><path class="cls-1" d="M27.16,9A1.85,1.85,0,0,0,29,7.13V1.85a1.86,1.86,0,0,0-3.71,0V7.13A1.85,1.85,0,0,0,27.16,9Z"/><path class="cls-1" d="M11.69,40,8,43.75a1.86,1.86,0,0,0,2.62,2.63l3.73-3.73A1.85,1.85,0,0,0,11.69,40Z"/><path class="cls-1" d="M41.34,14.85a1.86,1.86,0,0,0,1.31-.54l3.73-3.73A1.86,1.86,0,0,0,43.75,8L40,11.68a1.86,1.86,0,0,0,1.31,3.17Z"/><path class="cls-1" d="M9,27.17a1.86,1.86,0,0,0-1.86-1.86H1.85a1.86,1.86,0,0,0,0,3.71H7.12A1.85,1.85,0,0,0,9,27.17Z"/><path class="cls-1" d="M52.48,25.31H47.21a1.86,1.86,0,1,0,0,3.71h5.27a1.86,1.86,0,0,0,0-3.71Z"/><path class="cls-1" d="M11.68,14.31a1.88,1.88,0,0,0,1.32.54,1.86,1.86,0,0,0,1.31-3.17L10.58,8A1.85,1.85,0,0,0,8,10.58Z"/><path class="cls-1" d="M42.65,40A1.85,1.85,0,0,0,40,42.65l3.72,3.73a1.86,1.86,0,0,0,2.63-2.63Z"/><path class="cls-1" d="M27.17,12.74A14.43,14.43,0,1,0,41.6,27.17,14.44,14.44,0,0,0,27.17,12.74Zm0,25.15A10.73,10.73,0,1,1,37.89,27.17,10.74,10.74,0,0,1,27.17,37.89Z"/></g></g></svg>