<svg xmlns="http://www.w3.org/2000/svg" viewBox="0 0 58.48 52.64"><defs><style>.cls-1{fill:none;stroke:#0094cc;stroke-linecap:round;stroke-linejoin:round;stroke-width:3px;}.cls-2{fill:#0094cc;}</style></defs><title>i-taxi</title><g id="Layer_2" data-name="Layer 2"><g id="Modo_de_aislamiento" data-name="Modo de aislamiento"><path class="cls-1" d="M54.62,18.94a3,3,0,0,0-.77.11l-2.69.74-2.85-6.93a6.58,6.58,0,0,0-5.63-3.78H40.79V3.33A1.83,1.83,0,0,0,39,1.5H19.53a1.84,1.84,0,0,0-1.84,1.83V9.08H15.76a6.6,6.6,0,0,0-5.63,3.78L7.29,19.78l-2.66-.73a2.85,2.85,0,0,0-.76-.11,2.36,2.36,0,0,0-2.37,2.5v1.47A3.06,3.06,0,0,0,4.55,26h.2l-.4,1a22.71,22.71,0,0,0-1.44,7.29V48.09a3.06,3.06,0,0,0,3.05,3H9.64a3.06,3.06,0,0,0,3-3V44.68H45.75v3.41a3.06,3.06,0,0,0,3.06,3h3.67a3.06,3.06,0,0,0,3.06-3V34.25A23,23,0,0,0,54.1,27l-.41-1h.24a3.06,3.06,0,0,0,3-3.05V21.44A2.35,2.35,0,0,0,54.62,18.94ZM9.45,24.26l4.33-10.54a4,4,0,0,1,3.37-2.26H41.29a4,4,0,0,1,3.38,2.26L49,24.26a1.52,1.52,0,0,1-1.51,2.26H11A1.52,1.52,0,0,1,9.45,24.26Zm9.77,13.58A1.22,1.22,0,0,1,18,39.06H9.74a1.22,1.22,0,0,1-1.22-1.22V33.92A1.22,1.22,0,0,1,9.74,32.7H18a1.22,1.22,0,0,1,1.22,1.22Zm30.62,0a1.22,1.22,0,0,1-1.22,1.22H40.36a1.22,1.22,0,0,1-1.22-1.22V33.92a1.22,1.22,0,0,1,1.22-1.22h8.26a1.22,1.22,0,0,1,1.22,1.22Z"/><path class="cls-2" d="M35.81,9,33.93,6.72a.11.11,0,0,1,0-.12L35.7,3.93s0-.06,0-.06H34.1a.15.15,0,0,0-.11.06l-.92,1.49s0,0-.08,0l-.91-1.49A.15.15,0,0,0,32,3.87H30.4s0,0,0,.06L32.14,6.6a.11.11,0,0,1,0,.12L30.29,9l-2-5.06a.11.11,0,0,0-.1-.07h-1.7a.11.11,0,0,0-.09.07L24.32,9a0,0,0,0,0,0,.05h1.51L25.89,9,26.26,8a.11.11,0,0,1,.1-.07h1.92a.11.11,0,0,1,.1.07L28.72,9l.05.05h3.14A.1.1,0,0,0,32,9l1-1.65s.06,0,.08,0L34.1,9l.06,0h1.66S35.83,9.06,35.81,9ZM27.94,6.86H26.71s-.06,0,0-.07l.64-1.41a0,0,0,0,1,.07,0L28,6.79S28,6.86,27.94,6.86Z"/><path class="cls-2" d="M19.66,3.94a.08.08,0,0,1,.08-.07h5.11a.07.07,0,0,1,.07.07v.9a.08.08,0,0,1-.07.08H23.14a.07.07,0,0,0-.07.07V9a.09.09,0,0,1,0,.05h-1.5a.05.05,0,0,1,0-.05V5a.08.08,0,0,0-.07-.07h-1.7a.09.09,0,0,1-.08-.08Z"/><path class="cls-2" d="M36.61,3.94a.07.07,0,0,1,.07-.07h1.41a.07.07,0,0,1,.07.07V9a.05.05,0,0,1,0,.05H36.64a.05.05,0,0,1,0-.05Z"/></g></g></svg>