<svg xmlns="http://www.w3.org/2000/svg" viewBox="0 0 17.5 14.5"><defs><style>.cls-1{fill:none;stroke:#fff;stroke-miterlimit:10;stroke-width:1.5px;}</style></defs><title>i-tour</title><g id="Layer_2" data-name="Layer 2"><g id="Modo_de_aislamiento" data-name="Modo de aislamiento"><path class="cls-1" d="M5.5,8.25A3.25,3.25,0,1,0,8.75,5,3.25,3.25,0,0,0,5.5,8.25Zm10.25-5.5h-3.5c-.25-1-.5-2-1.5-2h-4c-1,0-1.25,1-1.5,2H1.75a1,1,0,0,0-1,1v9a1,1,0,0,0,1,1h14a1,1,0,0,0,1-1v-9A1,1,0,0,0,15.75,2.75Zm0,3h-2v-1h2Z"/></g></g></svg>