<svg xmlns="http://www.w3.org/2000/svg" viewBox="0 0 24.89 24.89"><defs><style>.cls-1{fill:#fff;}</style></defs><title>i-ubicacion0</title><g id="Layer_2" data-name="Layer 2"><g id="HOME_copia_2" data-name="HOME copia 2"><path class="cls-1" d="M12.44,3.76A5.44,5.44,0,0,0,7,9.19c0,5.43,5.43,11.94,5.43,11.94s5.43-6.51,5.43-11.94A5.43,5.43,0,0,0,12.44,3.76Zm0,8.75a3.33,3.33,0,1,1,3.33-3.32A3.32,3.32,0,0,1,12.44,12.51Z"/><path class="cls-1" d="M12.44,24.89A12.45,12.45,0,1,1,24.89,12.44,12.46,12.46,0,0,1,12.44,24.89ZM12.44,1A11.45,11.45,0,1,0,23.89,12.44,11.45,11.45,0,0,0,12.44,1Z"/></g></g></svg>