<svg xmlns="http://www.w3.org/2000/svg" viewBox="0 0 35.83 37.86"><defs><style>.cls-1{fill:#fff;}</style></defs><title>i-ventoso</title><g id="Layer_2" data-name="Layer 2"><g id="Capa_1" data-name="Capa 1"><path class="cls-1" d="M1.67,20.76H28.72a7.11,7.11,0,0,0,0-14.22A7,7,0,0,0,24,8.39a6.69,6.69,0,0,0-1.89,5,1.67,1.67,0,1,0,3.34,0,3.51,3.51,0,0,1,.86-2.58,3.72,3.72,0,0,1,2.39-.92h0a3.77,3.77,0,1,1,0,7.54h-27a1.67,1.67,0,1,0,0,3.34Z"/><path class="cls-1" d="M1.67,14.22H14.56A7.11,7.11,0,0,0,14.58,0,7,7,0,0,0,9.82,1.85a6.69,6.69,0,0,0-1.89,5,1.67,1.67,0,1,0,3.34,0,3.52,3.52,0,0,1,.86-2.58,3.76,3.76,0,0,1,2.4-.92h0a3.78,3.78,0,1,1,0,7.55H1.67a1.67,1.67,0,1,0,0,3.33Z"/><path class="cls-1" d="M28.72,23.64h-27a1.67,1.67,0,1,0,0,3.34H28.72a3.77,3.77,0,1,1,0,7.54h0a3.85,3.85,0,0,1-2.39-.92A3.53,3.53,0,0,1,25.43,31a1.67,1.67,0,0,0-3.34,0A6.69,6.69,0,0,0,24,36a7,7,0,0,0,4.7,1.85h.06a7.11,7.11,0,0,0,0-14.22Z"/></g></g></svg>