<svg xmlns="http://www.w3.org/2000/svg" viewBox="0 0 26.05 26.05"><defs><style>.cls-1{fill:#fff;}</style></defs><title>i-zoom</title><g id="Layer_2" data-name="Layer 2"><g id="Modo_de_aislamiento" data-name="Modo de aislamiento"><path class="cls-1" d="M25.25,22.17l-6.17-5.25a2.77,2.77,0,0,0-1.88-.81,9.65,9.65,0,1,0-1.09,1.1,2.77,2.77,0,0,0,.81,1.87l5.25,6.17a2.19,2.19,0,1,0,3.08-3.08ZM9.77,16.28a6.52,6.52,0,1,1,6.52-6.51A6.5,6.5,0,0,1,9.77,16.28ZM11.4,4.88H8.14V8.14H4.89V11.4H8.14v3.25H11.4V11.4h3.26V8.14H11.4Z"/></g></g></svg>