<svg xmlns="http://www.w3.org/2000/svg" viewBox="0 0 193 183"><defs><style>.cls-1{fill:#fff;}.cls-2{fill:#0f0f0f;}.cls-3{fill:#0094cc;}.cls-4{fill:#0080c2;}.cls-5{fill:#80afd4;}.cls-6{fill:#a8c7da;}</style></defs><title>logo0</title><g id="Layer_2" data-name="Layer 2"><g id="Layer_1-2" data-name="Layer 1"><path class="cls-1" d="M0,0H193a0,0,0,0,1,0,0V169.65A13.35,13.35,0,0,1,179.65,183H13.35A13.35,13.35,0,0,1,0,169.65V0A0,0,0,0,1,0,0Z"/><g id="Layer_2-2" data-name="Layer 2"><g id="Modo_de_aislamiento" data-name="Modo de aislamiento"><path class="cls-2" d="M40.28,133.61a15.3,15.3,0,0,1,.9,2.45,19.65,19.65,0,0,1,.55,2.53,21.83,21.83,0,0,1-4,1.06,28.42,28.42,0,0,1-3.8.25,16,16,0,0,1-6.34-1.17,12.48,12.48,0,0,1-4.56-3.27,13.7,13.7,0,0,1-2.79-5,20.45,20.45,0,0,1-.94-6.31,19.64,19.64,0,0,1,1-6.31,14.69,14.69,0,0,1,2.81-5,12.7,12.7,0,0,1,4.56-3.31,15.17,15.17,0,0,1,6.13-1.2,24.84,24.84,0,0,1,3.76.27,15.46,15.46,0,0,1,3.73,1.06,10.11,10.11,0,0,1-.51,2.49c-.28.79-.6,1.61-.94,2.44a17.94,17.94,0,0,0-2.63-.73,15.51,15.51,0,0,0-2.72-.21,7.65,7.65,0,0,0-6.34,2.72A12.06,12.06,0,0,0,26,124.17q0,10.37,8.83,10.37a16,16,0,0,0,2.76-.21A20.35,20.35,0,0,0,40.28,133.61Z"/><path class="cls-2" d="M55.61,125a3.53,3.53,0,0,0-.33-1.66,2.68,2.68,0,0,0-.94-1,3.8,3.8,0,0,0-1.47-.48,14,14,0,0,0-1.94-.14,15.1,15.1,0,0,0-4.88.9,12.81,12.81,0,0,1-.9-2.08,8.61,8.61,0,0,1-.3-2.37,23.41,23.41,0,0,1,7.23-1.24A10.35,10.35,0,0,1,59,119a8.52,8.52,0,0,1,2.49,6.81v12.75c-1,.3-2.19.6-3.62.89a24.8,24.8,0,0,1-4.79.42,19,19,0,0,1-4-.39A8.39,8.39,0,0,1,46,138.2a6,6,0,0,1-1.92-2.26,7.67,7.67,0,0,1-.69-3.43,6.27,6.27,0,0,1,.86-3.43,6.75,6.75,0,0,1,2.18-2.14,10,10,0,0,1,3.09-1.18,15.52,15.52,0,0,1,3.39-.44,21.56,21.56,0,0,1,2.72.12Zm0,4.36-1.09-.14a9.73,9.73,0,0,0-1.08,0,6.29,6.29,0,0,0-3.29.74,3.08,3.08,0,0,0-.79,4.1,2.74,2.74,0,0,0,1.13.89,5.19,5.19,0,0,0,1.4.33h1.29a7.81,7.81,0,0,0,1.28-.12l1.1-.18Z"/><path class="cls-2" d="M66.16,122H63.39l-.21-.84L71.13,111h1v6.42h5.14a11.24,11.24,0,0,1,.18,1.14v2.21a6.86,6.86,0,0,1-.18,1.24H72.1v8.62a8.34,8.34,0,0,0,.21,2.12,3.06,3.06,0,0,0,.62,1.28,1.92,1.92,0,0,0,1,.63,4.66,4.66,0,0,0,1.39.18,7.66,7.66,0,0,0,1.26-.11l1-.23a9.11,9.11,0,0,1,.42,1.77,10,10,0,0,1,.13,1.55v1.4a17.32,17.32,0,0,1-4.05.48,8.58,8.58,0,0,1-5.9-1.77,7.47,7.47,0,0,1-2-5.88Z"/><path class="cls-2" d="M85.35,130.25a4.69,4.69,0,0,0,1.77,3.69,7.05,7.05,0,0,0,4.26,1.15A16.61,16.61,0,0,0,97.21,134a10.6,10.6,0,0,1,.79,2.05,10.42,10.42,0,0,1,.39,2.54,20.68,20.68,0,0,1-7.47,1.28,14.69,14.69,0,0,1-5.3-.85,9.07,9.07,0,0,1-5.61-6,14.81,14.81,0,0,1-.61-4.54,14.56,14.56,0,0,1,.67-4.54,10.51,10.51,0,0,1,2-3.69,9.28,9.28,0,0,1,3.3-2.49,10.73,10.73,0,0,1,4.6-.92,9.72,9.72,0,0,1,4.08.81,9.06,9.06,0,0,1,3.07,2.16A9.16,9.16,0,0,1,99,123.22a12.87,12.87,0,0,1,.64,4.13,14.06,14.06,0,0,1,0,1.59,10.79,10.79,0,0,1-.14,1.26ZM94,126a5.41,5.41,0,0,0-1.13-3.28A3.53,3.53,0,0,0,90,121.5a4.23,4.23,0,0,0-3.24,1.19,5.56,5.56,0,0,0-1.3,3.35Z"/><path class="cls-2" d="M116.34,108.32a10.91,10.91,0,0,1,1.5-.16h3a11.34,11.34,0,0,1,1.53.16v30.34a29.79,29.79,0,0,1-4.06.92,34.61,34.61,0,0,1-5,.32,15.39,15.39,0,0,1-4.33-.59,10.05,10.05,0,0,1-3.54-1.94,9.43,9.43,0,0,1-2.49-3.53,13.48,13.48,0,0,1-1-5.13,13.15,13.15,0,0,1,.8-4.56,10.5,10.5,0,0,1,5.8-6.22,11.64,11.64,0,0,1,4.62-.9h1.59a9.51,9.51,0,0,1,1.61.28Zm0,13.64a9.45,9.45,0,0,0-1.39-.26,7.39,7.39,0,0,0-1.33,0,5.09,5.09,0,0,0-2.45.56,5.35,5.35,0,0,0-1.77,1.54,6.27,6.27,0,0,0-1,2.26,10.76,10.76,0,0,0-.28,2.65,8.45,8.45,0,0,0,.44,2.95,5,5,0,0,0,1.16,2,4.54,4.54,0,0,0,1.77,1,7.61,7.61,0,0,0,2.23.32,9.54,9.54,0,0,0,1.31,0,7.54,7.54,0,0,0,1.32-.27Z"/><path class="cls-2" d="M126.87,117.42a10.29,10.29,0,0,1,1.22-.19h1.26a8.42,8.42,0,0,1,1.23,0,3.56,3.56,0,0,1,1.22.21,1.93,1.93,0,0,1,.23.62,5.06,5.06,0,0,0,.2.84c.05.31.1.61.14.91s.09.54.1.74a11.74,11.74,0,0,1,2.3-2.37,5.48,5.48,0,0,1,3.41-1h1a5.59,5.59,0,0,1,.82.12,2.89,2.89,0,0,0,.12,1,3.69,3.69,0,0,1,0,1.15V121a11.26,11.26,0,0,1-.25,1.63,5.79,5.79,0,0,0-1,0h-.71a10.94,10.94,0,0,0-1.61.14,3.87,3.87,0,0,0-1.76.8,4.69,4.69,0,0,0-1.33,1.9,9.92,9.92,0,0,0-.53,3.54v10.46c-.51.08-1,.13-1.54.16h-3a5.31,5.31,0,0,1-1.55-.16Z"/><path class="cls-2" d="M153.22,125a3.54,3.54,0,0,0-.34-1.66,2.52,2.52,0,0,0-.93-1,3.8,3.8,0,0,0-1.47-.48,14,14,0,0,0-1.94-.14,15,15,0,0,0-4.88.9,11.19,11.19,0,0,1-.88-2.08,7.32,7.32,0,0,1-.3-2.37,22.78,22.78,0,0,1,3.72-.94,23.27,23.27,0,0,1,3.54-.3,10.3,10.3,0,0,1,6.89,2.12,8.52,8.52,0,0,1,2.49,6.81v12.75c-1,.3-2.19.6-3.53.89a24.87,24.87,0,0,1-4.79.42,19,19,0,0,1-4-.39,8.39,8.39,0,0,1-3.11-1.27,5.9,5.9,0,0,1-2-2.3,7.48,7.48,0,0,1-.69-3.43,6.21,6.21,0,0,1,.86-3.42,6.88,6.88,0,0,1,2.12-2.11,10.19,10.19,0,0,1,3.09-1.18,16.24,16.24,0,0,1,3.4-.37,21.64,21.64,0,0,1,2.72.12Zm0,4.36-1.1-.14a9.55,9.55,0,0,0-1.07,0,6.27,6.27,0,0,0-3.29.74A3.12,3.12,0,0,0,147,134a2.82,2.82,0,0,0,1.13.89,5,5,0,0,0,1.39.33h1.31a7.69,7.69,0,0,0,1.27-.12l1.1-.18Z"/><path class="cls-2" d="M163,108.32a20,20,0,0,1,3-.25,19.6,19.6,0,0,1,3,.25v22.32a11.58,11.58,0,0,0,.16,2.12,3.1,3.1,0,0,0,.46,1.25,1.6,1.6,0,0,0,.83.62,4.6,4.6,0,0,0,1.28.18h.74a6.85,6.85,0,0,0,.79-.13,13.46,13.46,0,0,1,.46,3.4v.61a2.15,2.15,0,0,1,0,.62,7.53,7.53,0,0,1-1.64.3h-1.77a7.42,7.42,0,0,1-5.3-1.76,7.69,7.69,0,0,1-2-5.89Z"/><path class="cls-2" d="M46.27,149.6h1.29l3.76,11.25H50.15L49.2,158H44.57l-.9,2.86H42.5ZM48.9,157l-2-6.27-2,6.27Z"/><path class="cls-2" d="M53.78,149.33h1V159a1.64,1.64,0,0,0,.09.62.76.76,0,0,0,.24.34,1.17,1.17,0,0,0,.3.14h1a2,2,0,0,1,.13.41v.4a1.76,1.76,0,0,1-.5.13H54.91a1.42,1.42,0,0,1-.59-.29,1.29,1.29,0,0,1-.42-.53,2.41,2.41,0,0,1-.16-.88Z"/><path class="cls-2" d="M59.31,153.75H58v-.88h1.36v-1.51l1-1h0v2.46h2.17v.88H60.33v5.19a1.45,1.45,0,0,0,.11.62.83.83,0,0,0,.26.36.75.75,0,0,0,.37.15,1.69,1.69,0,0,0,.45,0,2.81,2.81,0,0,0,.95-.14,6.64,6.64,0,0,1,.16.87,4.19,4.19,0,0,1-1.31.18,2.24,2.24,0,0,1-1.47-.48,1.94,1.94,0,0,1-.54-1.56Z"/><path class="cls-2" d="M69.45,155.59a2,2,0,0,0-.5-1.52,1.92,1.92,0,0,0-1.43-.48,5.53,5.53,0,0,0-1.15,0,4.63,4.63,0,0,0-.91.21,1.75,1.75,0,0,1-.2-.35,4.34,4.34,0,0,1,0-.51l1-.22c.4,0,.81,0,1.22,0a3.3,3.3,0,0,1,2.26.68,2.74,2.74,0,0,1,.81,2v5.3l-1.32.21a12.45,12.45,0,0,1-1.49.11,3.91,3.91,0,0,1-2.29-.59,2.08,2.08,0,0,1-.85-1.87,2.58,2.58,0,0,1,.24-1.13,2.61,2.61,0,0,1,.68-.83,3,3,0,0,1,1-.5,4.56,4.56,0,0,1,1.32-.17h1.65Zm0,1.37-.66,0H68a3.39,3.39,0,0,0-1.76.44,1.67,1.67,0,0,0-.44,2.09,1.24,1.24,0,0,0,.51.48,2.75,2.75,0,0,0,.69.21,4.57,4.57,0,0,0,.74,0,7.06,7.06,0,0,0,.92,0l.83-.13Z"/><path class="cls-2" d="M78.78,149.6h2.38a6.18,6.18,0,0,1,1.66.19,3.86,3.86,0,0,1,1.31.58,3,3,0,0,1,.83,1.06,3.9,3.9,0,0,1,.3,1.58,3.69,3.69,0,0,1-.33,1.76,3.13,3.13,0,0,1-.92,1.15,3.65,3.65,0,0,1-1.33.64,6.09,6.09,0,0,1-1.59.21H79.86v4.42H78.78Zm1.08,5.83H81a7,7,0,0,0,1.12,0,2.9,2.9,0,0,0,1-.39,2.26,2.26,0,0,0,.73-.81,3.2,3.2,0,0,0,.26-1.4,2.67,2.67,0,0,0-.21-1.15,1.88,1.88,0,0,0-.6-.74,2.59,2.59,0,0,0-1-.41,5.38,5.38,0,0,0-1.26-.12H79.86Z"/><path class="cls-2" d="M92.12,155.59a2.09,2.09,0,0,0-.48-1.52,2,2,0,0,0-1.45-.48,7.3,7.3,0,0,0-2.07.3,1.93,1.93,0,0,1-.12-.41,2.17,2.17,0,0,1,0-.51l1-.21a8.28,8.28,0,0,1,1.22,0,3.27,3.27,0,0,1,2.26.67,2.66,2.66,0,0,1,.74,2.09v5.3l-1.34.21a10.52,10.52,0,0,1-1.48.1,4,4,0,0,1-2.3-.58,2.13,2.13,0,0,1-.83-1.87,2.34,2.34,0,0,1,.25-1.13,2.46,2.46,0,0,1,.67-.83,2.94,2.94,0,0,1,1-.5,4.58,4.58,0,0,1,1.33-.17h1.64Zm0,1.37H90.7a3.22,3.22,0,0,0-1.76.45,1.41,1.41,0,0,0-.66,1.25,1.59,1.59,0,0,0,.2.83A1.47,1.47,0,0,0,89,160a2.12,2.12,0,0,0,.69.21,3.22,3.22,0,0,0,.76,0,6.76,6.76,0,0,0,.9,0l.83-.12Z"/><path class="cls-2" d="M96.91,153.75H95.55v-.88h1.36v-1.51l1-1h0v2.46h2.17v.88H97.93v5.19a1.45,1.45,0,0,0,.11.62.83.83,0,0,0,.26.36.82.82,0,0,0,.39.15,1.55,1.55,0,0,0,.43,0,2.81,2.81,0,0,0,.95-.14,6.64,6.64,0,0,1,.16.87,4.27,4.27,0,0,1-1.33.18,2.19,2.19,0,0,1-1.45-.48,1.94,1.94,0,0,1-.54-1.56Z"/><path class="cls-2" d="M107.05,155.59a2,2,0,0,0-.5-1.52,1.92,1.92,0,0,0-1.43-.48,5.53,5.53,0,0,0-1.15,0,7.06,7.06,0,0,0-.91.21,1.49,1.49,0,0,1-.15-.4,4.51,4.51,0,0,1,0-.52l1-.21a8.28,8.28,0,0,1,1.22,0,3.33,3.33,0,0,1,2.26.67,2.73,2.73,0,0,1,.73,2.09v5.3l-1.33.21a12.28,12.28,0,0,1-1.48.11,4,4,0,0,1-2.3-.59,2.1,2.1,0,0,1-.85-1.87,2.59,2.59,0,0,1,.25-1.13,2.46,2.46,0,0,1,.67-.83,3.13,3.13,0,0,1,1-.5,4.58,4.58,0,0,1,1.33-.17h1.64Zm0,1.37h-1.43a3.43,3.43,0,0,0-1.77.45,1.42,1.42,0,0,0-.64,1.25,1.59,1.59,0,0,0,.2.83,1.24,1.24,0,0,0,.51.48,2.12,2.12,0,0,0,.69.21,3.05,3.05,0,0,0,.74,0,7.06,7.06,0,0,0,.92,0l.83-.12Z"/><path class="cls-2" d="M115.58,160.06a2.81,2.81,0,0,1,2,.58,1.78,1.78,0,0,1,.61,1.43,2,2,0,0,1-.32,1.1,2.47,2.47,0,0,1-.89.84,4.25,4.25,0,0,1-1.32.55,6.59,6.59,0,0,1-1.77.2,8,8,0,0,1-1.29-.11,3.33,3.33,0,0,1-1-.35,1.76,1.76,0,0,1-.66-.64,1.89,1.89,0,0,1-.24-1,2,2,0,0,1,.35-1.13,2.15,2.15,0,0,1,.88-.81,2.32,2.32,0,0,1-.49-.5,1.15,1.15,0,0,1-.2-.7,1.79,1.79,0,0,1,.29-1,2.78,2.78,0,0,1,.77-.72,2.73,2.73,0,0,1-.88-.94,3.08,3.08,0,0,1-.12-2.46,2.06,2.06,0,0,1,.58-.88,2.64,2.64,0,0,1,1-.6,3.52,3.52,0,0,1,1.33-.23,3.15,3.15,0,0,1,1.13.18,3.24,3.24,0,0,1,.88.42l.39-.14L117,153a1.08,1.08,0,0,0,.58-.11h.59a2.51,2.51,0,0,1,.07.55,2.35,2.35,0,0,1,0,.53h-1.49a3.82,3.82,0,0,1,.34.74,3.32,3.32,0,0,1,.11.83,2.79,2.79,0,0,1-.23,1.18,2.45,2.45,0,0,1-.66.87,2.7,2.7,0,0,1-1,.53,3.4,3.4,0,0,1-1.18.2,4.38,4.38,0,0,1-1.19-.16,2,2,0,0,0-.62.53,1,1,0,0,0-.17.58,1.5,1.5,0,0,0,0,.3.7.7,0,0,0,.19.26,1.4,1.4,0,0,0,.43.2,4,4,0,0,0,.69,0Zm-2.22.95a1.57,1.57,0,0,0-1.19.41,1.48,1.48,0,0,0-.44,1.13,1,1,0,0,0,.18.63,1,1,0,0,0,.47.39,2.6,2.6,0,0,0,.71.2,6.32,6.32,0,0,0,.87,0,4.41,4.41,0,0,0,2.28-.5,1.42,1.42,0,0,0,.81-1.18,1,1,0,0,0-.41-.85,3,3,0,0,0-1.34-.26Zm-1.15-5.53a2,2,0,0,0,.48,1.36,1.86,1.86,0,0,0,1.5.55,2,2,0,0,0,1.5-.55,2.22,2.22,0,0,0,0-2.74,1.91,1.91,0,0,0-1.5-.56,1.87,1.87,0,0,0-1.5.56A2,2,0,0,0,112.21,155.48Z"/><path class="cls-2" d="M123.57,161.05a3.64,3.64,0,0,1-1.56-.32,3.15,3.15,0,0,1-1.13-.89,4.43,4.43,0,0,1-.67-1.34,6.51,6.51,0,0,1,0-3.28,4.38,4.38,0,0,1,.67-1.33A2.94,2.94,0,0,1,122,153a3.38,3.38,0,0,1,1.56-.34,3.42,3.42,0,0,1,1.57.34,3,3,0,0,1,1.12.88,4.62,4.62,0,0,1,.67,1.33,6.09,6.09,0,0,1,0,3.28,4.43,4.43,0,0,1-.67,1.34,3.32,3.32,0,0,1-1.12.89A3.68,3.68,0,0,1,123.57,161.05Zm0-.91a2.1,2.1,0,0,0,1.87-.88,4,4,0,0,0,.64-2.4,4.06,4.06,0,0,0-.64-2.4,2.09,2.09,0,0,0-1.87-.87,2.14,2.14,0,0,0-1.87.87,4.64,4.64,0,0,0,.1,4.8A2.17,2.17,0,0,0,123.57,160.14Z"/><path class="cls-2" d="M130.27,152.87h.95v1.44a3.81,3.81,0,0,1,.41-.58,2.46,2.46,0,0,1,.6-.51,2.24,2.24,0,0,1,.77-.39,2.85,2.85,0,0,1,1-.16,2.4,2.4,0,0,1,2,.78,3.71,3.71,0,0,1,.63,2.31v5h-.9v-4.67a3.29,3.29,0,0,0-.42-1.92,1.41,1.41,0,0,0-1.24-.57,2.65,2.65,0,0,0-1,.21,2.38,2.38,0,0,0-.83.64,3.24,3.24,0,0,0-.57,1,4.67,4.67,0,0,0-.19,1.39v3.94h-1Z"/><path class="cls-2" d="M140.51,153.75h-1a.67.67,0,0,1,0-.2.88.88,0,0,1,0-.23,1,1,0,0,1,0-.24.74.74,0,0,1,0-.21h2v8h-1ZM140,150.9v-1.29h1.33v.3a1.71,1.71,0,0,1,0,.32,2.16,2.16,0,0,1,0,.36v.33H140Z"/><path class="cls-2" d="M149.49,155.59a2,2,0,0,0-.49-1.52,2,2,0,0,0-1.44-.48,5.43,5.43,0,0,0-1.14,0,6.84,6.84,0,0,0-.92.21,1.19,1.19,0,0,1-.14-.4,2.26,2.26,0,0,1,0-.52l1-.21a8.28,8.28,0,0,1,1.22,0,3.33,3.33,0,0,1,2.26.67,2.73,2.73,0,0,1,.73,2.09v5.3l-1.33.21a12.13,12.13,0,0,1-1.48.11,4,4,0,0,1-2.3-.59,2.1,2.1,0,0,1-.85-1.87,2.59,2.59,0,0,1,.25-1.13,2.46,2.46,0,0,1,.67-.83,3.13,3.13,0,0,1,1-.5,4.63,4.63,0,0,1,1.33-.17h1.64Zm0,1.37h-1.43a3.34,3.34,0,0,0-1.77.45,1.41,1.41,0,0,0-.63,1.25,1.5,1.5,0,0,0,.19.83,1.24,1.24,0,0,0,.51.48,2.12,2.12,0,0,0,.69.21,3.22,3.22,0,0,0,.76,0,6.76,6.76,0,0,0,.9,0l.83-.12Z"/><path class="cls-1" d="M151.59,55.21v-.13c-1.13-10.21-8.07-14.86-14-14.86a11.06,11.06,0,0,0-4.93,1.13l-4.37,2.2L128,40.79v-.12C127.1,32,121.06,28,115.88,28a9.72,9.72,0,0,0-4.33,1L97.17,36.23,82.79,29a9.91,9.91,0,0,0-4.35-1c-5.16,0-11.16,4-12.12,12.67L66,44.2l-5.58-2.83a11.18,11.18,0,0,0-4.95-1.13c-6,0-12.9,4.65-14.05,14.86l-1.5,18v.25c-.33,11.73,10.21,25.51,28.47,28.27a26.73,26.73,0,0,0,3.67.49H121a26.38,26.38,0,0,0,3.66-.49c18.25-2.81,28.8-16.59,28.48-28.27Z"/><path class="cls-3" d="M64.61,75.56,91.59,62,58.44,45.31c-4.29-2.15-11.54.78-12.6,10.25L44.36,73.49c-.2,6.81,4.29,14.83,12.81,19.74C54.34,86.64,58.62,78.57,64.61,75.56Z"/><path class="cls-4" d="M147.18,55.56l1.48,17.93c.3,10.43-10.37,23.7-29.7,24.3H72.33c-5-.34-9-2-11-5.9-2.16-4.3.93-10.2,5.3-12.37l67.92-34.21C138.87,43.16,146.13,46.09,147.18,55.56Z"/><path class="cls-5" d="M96.52,59.52,124,45.67l-.42-4.51c-.85-7.58-6.66-9.93-10.09-8.2L78.65,50.51l5.11,2.58Z"/><path class="cls-6" d="M92.24,38.72,80.79,33c-3.43-1.77-9.22.62-10.07,8.2l-.42,5.12,3.42,1.77Z"/></g></g></g></g></svg>