<svg xmlns="http://www.w3.org/2000/svg" viewBox="0 0 87.37 77.4"><defs><style>.cls-1{fill:#fff;}.cls-2{fill:#0094cc;}.cls-3{fill:#0080c2;}.cls-4{fill:#80afd4;}.cls-5{fill:#a8c7da;}</style></defs><title>logo-footer0</title><g id="Layer_2" data-name="Layer 2"><g id="Modo_de_aislamiento" data-name="Modo de aislamiento"><path class="cls-1" d="M11.86,59.77a8.57,8.57,0,0,1,.51,1.39,10.13,10.13,0,0,1,.31,1.43,12.27,12.27,0,0,1-2.25.6,16.18,16.18,0,0,1-2.15.14,9.05,9.05,0,0,1-3.59-.66,7.13,7.13,0,0,1-2.58-1.85A7.83,7.83,0,0,1,.53,58,11.6,11.6,0,0,1,0,54.43a11.13,11.13,0,0,1,.56-3.57A8.25,8.25,0,0,1,2.15,48a7.15,7.15,0,0,1,2.58-1.87,8.49,8.49,0,0,1,3.47-.68,14,14,0,0,1,2.13.15,8.84,8.84,0,0,1,2.11.6,5.7,5.7,0,0,1-.29,1.41c-.16.45-.34.91-.53,1.38a9.76,9.76,0,0,0-1.49-.41,8.68,8.68,0,0,0-1.54-.12A4.35,4.35,0,0,0,5,50,6.86,6.86,0,0,0,3.8,54.43q0,5.87,5,5.87a9,9,0,0,0,1.56-.12A10.62,10.62,0,0,0,11.86,59.77Z"/><path class="cls-1" d="M20.54,54.87a2,2,0,0,0-.19-.94,1.53,1.53,0,0,0-.53-.57,2.19,2.19,0,0,0-.83-.27,7.37,7.37,0,0,0-1.1-.08,8.44,8.44,0,0,0-2.76.51,6.79,6.79,0,0,1-.51-1.18A4.65,4.65,0,0,1,14.45,51a13.11,13.11,0,0,1,4.09-.7,5.84,5.84,0,0,1,3.91,1.2,4.81,4.81,0,0,1,1.41,3.85v7.22c-.56.17-1.24.34-2.05.5a13.86,13.86,0,0,1-2.71.24,10.47,10.47,0,0,1-2.25-.22,4.73,4.73,0,0,1-1.76-.72A3.38,3.38,0,0,1,14,61.09a4.33,4.33,0,0,1-.39-1.94,3.56,3.56,0,0,1,.49-1.94A3.79,3.79,0,0,1,15.33,56a5.49,5.49,0,0,1,1.75-.67A9,9,0,0,1,19,55.08c.47,0,1,0,1.54.07Zm0,2.47-.62-.08a4.66,4.66,0,0,0-.61,0,3.56,3.56,0,0,0-1.86.42A1.74,1.74,0,0,0,17,60a1.56,1.56,0,0,0,.64.5,2.86,2.86,0,0,0,.79.19c.28,0,.53,0,.73,0a4.51,4.51,0,0,0,.73-.07l.62-.1Z"/><path class="cls-1" d="M26.51,53.21H24.94l-.12-.48L29.32,47h.55v3.63h2.91a6.52,6.52,0,0,1,.1.65c0,.19,0,.39,0,.6s0,.44,0,.65-.05.44-.1.7H29.87v4.88a4.88,4.88,0,0,0,.12,1.2,1.73,1.73,0,0,0,.35.72,1.08,1.08,0,0,0,.57.36,2.62,2.62,0,0,0,.79.1,4.17,4.17,0,0,0,.71-.06L33,60.3a5.09,5.09,0,0,1,.24,1,5.85,5.85,0,0,1,.07.88c0,.18,0,.32,0,.44l0,.35a9.63,9.63,0,0,1-2.29.27,4.84,4.84,0,0,1-3.34-1,4.24,4.24,0,0,1-1.15-3.33Z"/><path class="cls-1" d="M37.37,57.87a2.66,2.66,0,0,0,1,2.09,4,4,0,0,0,2.41.65,9.38,9.38,0,0,0,3.3-.6,6.11,6.11,0,0,1,.45,1.16,6,6,0,0,1,.22,1.44,11.73,11.73,0,0,1-4.23.72,8.27,8.27,0,0,1-3-.48,5.12,5.12,0,0,1-3.17-3.37A8.4,8.4,0,0,1,34,56.91a8.28,8.28,0,0,1,.38-2.57,6,6,0,0,1,1.15-2.09,5.26,5.26,0,0,1,1.87-1.41A6.11,6.11,0,0,1,40,50.32a5.44,5.44,0,0,1,2.31.46A5.12,5.12,0,0,1,44.05,52a5.32,5.32,0,0,1,1.07,1.89,7.45,7.45,0,0,1,.36,2.34,8.77,8.77,0,0,1,0,.9,6.83,6.83,0,0,1-.08.71Zm4.89-2.38a3.08,3.08,0,0,0-.64-1.86A2,2,0,0,0,40,52.92a2.38,2.38,0,0,0-1.83.67,3.2,3.2,0,0,0-.74,1.9Z"/><path class="cls-1" d="M54.91,45.46a6.3,6.3,0,0,1,.85-.09l.83,0,.84,0a6.42,6.42,0,0,1,.87.09V62.63a16.61,16.61,0,0,1-2.3.52,18.89,18.89,0,0,1-2.82.18A8.64,8.64,0,0,1,50.73,63a5.65,5.65,0,0,1-2-1.1,5.29,5.29,0,0,1-1.41-2A7.51,7.51,0,0,1,46.75,57a7.37,7.37,0,0,1,.45-2.58,5.94,5.94,0,0,1,3.28-3.52,6.55,6.55,0,0,1,2.62-.51l.9,0a5.24,5.24,0,0,1,.91.16Zm0,7.72a5.55,5.55,0,0,0-.79-.15,5.2,5.2,0,0,0-.75,0,2.94,2.94,0,0,0-1.39.32,3,3,0,0,0-1,.87,3.56,3.56,0,0,0-.56,1.28A6.27,6.27,0,0,0,50.26,57a4.78,4.78,0,0,0,.25,1.67,2.83,2.83,0,0,0,.66,1.1,2.49,2.49,0,0,0,1,.59,4.26,4.26,0,0,0,1.26.18,5.6,5.6,0,0,0,.74,0,4,4,0,0,0,.75-.15Z"/><path class="cls-1" d="M60.87,50.61a6.15,6.15,0,0,1,.69-.11c.21,0,.45,0,.71,0a5.36,5.36,0,0,1,.7,0q.36,0,.69.12a1.36,1.36,0,0,1,.13.35c0,.15.08.31.11.48s.06.34.08.51.05.31.06.42a6.59,6.59,0,0,1,1.3-1.34,3.12,3.12,0,0,1,1.93-.59l.55,0a2.65,2.65,0,0,1,.46.07c0,.16,0,.35.07.55s0,.43,0,.65,0,.57,0,.89a6.56,6.56,0,0,1-.14.92,3.39,3.39,0,0,0-.58,0h-.4a6.23,6.23,0,0,0-.91.08,2.2,2.2,0,0,0-1,.45,2.66,2.66,0,0,0-.75,1.08,5.44,5.44,0,0,0-.3,2v5.92a8.55,8.55,0,0,1-.87.09l-.84,0c-.28,0-.55,0-.83,0s-.57,0-.88-.09Z"/><path class="cls-1" d="M75.78,54.87a2,2,0,0,0-.19-.94,1.46,1.46,0,0,0-.53-.57,2.14,2.14,0,0,0-.83-.27,7.27,7.27,0,0,0-1.1-.08,8.44,8.44,0,0,0-2.76.51,6.69,6.69,0,0,1-.5-1.18A4.32,4.32,0,0,1,69.7,51a12.54,12.54,0,0,1,2.11-.53,13,13,0,0,1,2-.17,5.81,5.81,0,0,1,3.9,1.2,4.81,4.81,0,0,1,1.41,3.85v7.22c-.56.17-1.24.34-2,.5a13.86,13.86,0,0,1-2.71.24,10.47,10.47,0,0,1-2.25-.22,4.73,4.73,0,0,1-1.76-.72,3.38,3.38,0,0,1-1.13-1.3,4.33,4.33,0,0,1-.39-1.94,3.56,3.56,0,0,1,.49-1.94A3.79,3.79,0,0,1,70.57,56a5.68,5.68,0,0,1,1.75-.67,9,9,0,0,1,1.92-.21c.47,0,1,0,1.54.07Zm0,2.47-.62-.08a4.66,4.66,0,0,0-.61,0,3.56,3.56,0,0,0-1.86.42A1.77,1.77,0,0,0,72.27,60a1.62,1.62,0,0,0,.64.5,2.86,2.86,0,0,0,.79.19c.28,0,.53,0,.74,0a4.39,4.39,0,0,0,.72-.07l.62-.1Z"/><path class="cls-1" d="M81.31,45.46A11.16,11.16,0,0,1,83,45.32a10.78,10.78,0,0,1,1.68.14V58.09a6.45,6.45,0,0,0,.09,1.2,1.68,1.68,0,0,0,.26.71.9.9,0,0,0,.47.35,2.4,2.4,0,0,0,.72.1l.42,0a3.25,3.25,0,0,0,.45-.07,7.7,7.7,0,0,1,.26,1.92v.35a1.5,1.5,0,0,1,0,.35,4.43,4.43,0,0,1-.93.17c-.36,0-.69,0-1,0a4.21,4.21,0,0,1-3-1,4.34,4.34,0,0,1-1.12-3.33Z"/><path class="cls-1" d="M15.25,68.82l.17,0h.39l.17,0,2.13,6.37-.16,0H17.6l-.15,0-.54-1.62H14.29l-.51,1.62-.16,0h-.35l-.15,0ZM16.74,73l-1.15-3.55L14.47,73Z"/><path class="cls-1" d="M19.5,68.67h.59v5.48a1,1,0,0,0,.05.35.43.43,0,0,0,.14.19.53.53,0,0,0,.17.08h.39a1.46,1.46,0,0,0,.17,0,1.55,1.55,0,0,1,.07.23c0,.09,0,.17,0,.23a1,1,0,0,1-.28.07l-.28,0a2.45,2.45,0,0,1-.38,0,.84.84,0,0,1-.33-.16.73.73,0,0,1-.24-.3,1.31,1.31,0,0,1-.09-.5Z"/><path class="cls-1" d="M22.63,71.17h-.77s0-.07,0-.12v-.27s0-.08,0-.11h.77v-.85l.55-.54h0v1.39h1.23s0,.07,0,.11,0,.08,0,.13,0,.09,0,.14,0,.09,0,.12H23.21v2.94a.82.82,0,0,0,.06.35.46.46,0,0,0,.15.2.43.43,0,0,0,.21.09,1.07,1.07,0,0,0,.25,0,1.71,1.71,0,0,0,.54-.08,3.56,3.56,0,0,1,.09.49,2.37,2.37,0,0,1-.74.1,1.24,1.24,0,0,1-.83-.27,1.1,1.1,0,0,1-.31-.88Z"/><path class="cls-1" d="M28.37,72.21a1.14,1.14,0,0,0-.28-.86,1.1,1.1,0,0,0-.81-.27,3.24,3.24,0,0,0-.65,0,3.08,3.08,0,0,0-.52.12A.87.87,0,0,1,26,71a1.59,1.59,0,0,1,0-.29l.57-.12a5.09,5.09,0,0,1,.69,0,1.88,1.88,0,0,1,1.28.38A1.55,1.55,0,0,1,29,72.12v3l-.75.12a6.38,6.38,0,0,1-.84.06,2.21,2.21,0,0,1-1.3-.33,1.19,1.19,0,0,1-.48-1.06,1.47,1.47,0,0,1,.14-.64,1.43,1.43,0,0,1,.38-.47,1.7,1.7,0,0,1,.59-.28,2.48,2.48,0,0,1,.75-.1l.55,0,.38,0Zm0,.78L28,73l-.43,0a1.89,1.89,0,0,0-1,.25.94.94,0,0,0-.25,1.18.69.69,0,0,0,.29.27,1.27,1.27,0,0,0,.39.12,2,2,0,0,0,.42,0,4.17,4.17,0,0,0,.52,0l.47-.07Z"/><path class="cls-1" d="M33.65,68.82l.24,0,.36,0,.39,0H35a3.47,3.47,0,0,1,.94.11,2.09,2.09,0,0,1,.74.33,1.63,1.63,0,0,1,.47.6,2.17,2.17,0,0,1,.17.89,2.13,2.13,0,0,1-.19,1,1.76,1.76,0,0,1-.52.65,2,2,0,0,1-.75.36,3.37,3.37,0,0,1-.9.12H34.6l-.34,0v2.5l-.14,0h-.34l-.13,0Zm.61,3.3.15,0h.5a3.22,3.22,0,0,0,.63,0,1.58,1.58,0,0,0,.57-.22,1.23,1.23,0,0,0,.41-.46,1.76,1.76,0,0,0,.15-.79,1.57,1.57,0,0,0-.12-.65,1.07,1.07,0,0,0-.34-.42,1.47,1.47,0,0,0-.54-.23,3.17,3.17,0,0,0-.71-.07h-.41l-.29,0Z"/><path class="cls-1" d="M41.2,72.21a1.18,1.18,0,0,0-.27-.86,1.14,1.14,0,0,0-.82-.27,4.1,4.1,0,0,0-1.17.17.9.9,0,0,1-.07-.23,1,1,0,0,1,0-.29l.56-.12a5.34,5.34,0,0,1,.69,0,1.86,1.86,0,0,1,1.28.38,1.52,1.52,0,0,1,.42,1.18v3l-.76.12a6.15,6.15,0,0,1-.84.06,2.25,2.25,0,0,1-1.3-.33,1.21,1.21,0,0,1-.47-1.06,1.34,1.34,0,0,1,.14-.64,1.43,1.43,0,0,1,.38-.47,1.65,1.65,0,0,1,.58-.28,2.57,2.57,0,0,1,.75-.1l.55,0,.38,0Zm0,.78-.37,0-.43,0a1.84,1.84,0,0,0-1,.25.8.8,0,0,0-.37.71.91.91,0,0,0,.11.47.82.82,0,0,0,.29.27,1.27,1.27,0,0,0,.39.12,2.09,2.09,0,0,0,.43,0,4.12,4.12,0,0,0,.51,0l.47-.07Z"/><path class="cls-1" d="M43.91,71.17h-.77s0-.07,0-.12v-.27s0-.08,0-.11h.77v-.85l.55-.54h0v1.39h1.23s0,.07,0,.11,0,.08,0,.13,0,.09,0,.14,0,.09,0,.12H44.49v2.94a.82.82,0,0,0,.06.35.46.46,0,0,0,.15.2.47.47,0,0,0,.22.09,1,1,0,0,0,.24,0,1.71,1.71,0,0,0,.54-.08,3.56,3.56,0,0,1,.09.49,2.39,2.39,0,0,1-.75.1,1.23,1.23,0,0,1-.82-.27,1.1,1.1,0,0,1-.31-.88Z"/><path class="cls-1" d="M49.65,72.21a1.14,1.14,0,0,0-.28-.86,1.1,1.1,0,0,0-.81-.27,3.24,3.24,0,0,0-.65,0,3.33,3.33,0,0,0-.52.12.87.87,0,0,1-.08-.23,1.59,1.59,0,0,1,0-.29l.57-.12a5.09,5.09,0,0,1,.69,0,1.88,1.88,0,0,1,1.28.38,1.55,1.55,0,0,1,.41,1.18v3l-.75.12a6.38,6.38,0,0,1-.84.06,2.23,2.23,0,0,1-1.3-.33,1.19,1.19,0,0,1-.48-1.06,1.47,1.47,0,0,1,.14-.64,1.43,1.43,0,0,1,.38-.47,1.7,1.7,0,0,1,.59-.28,2.52,2.52,0,0,1,.75-.1l.55,0,.38,0Zm0,.78-.38,0-.43,0a1.89,1.89,0,0,0-1,.25.81.81,0,0,0-.36.71.91.91,0,0,0,.11.47.69.69,0,0,0,.29.27,1.19,1.19,0,0,0,.39.12,2,2,0,0,0,.42,0,4.17,4.17,0,0,0,.52,0l.47-.07Z"/><path class="cls-1" d="M54.48,74.74a1.63,1.63,0,0,1,1.11.33,1,1,0,0,1,.34.81,1.1,1.1,0,0,1-.18.62,1.44,1.44,0,0,1-.5.48,2.56,2.56,0,0,1-.75.31,3.72,3.72,0,0,1-1,.11,4.15,4.15,0,0,1-.73-.06,2,2,0,0,1-.58-.2,1,1,0,0,1-.37-.36,1.08,1.08,0,0,1-.14-.56,1.18,1.18,0,0,1,.2-.64,1.22,1.22,0,0,1,.5-.46,1.24,1.24,0,0,1-.28-.28.65.65,0,0,1-.11-.4,1,1,0,0,1,.16-.58,1.59,1.59,0,0,1,.44-.41,1.5,1.5,0,0,1-.5-.53,1.54,1.54,0,0,1-.18-.77,1.56,1.56,0,0,1,.11-.62,1.22,1.22,0,0,1,.33-.5,1.46,1.46,0,0,1,.55-.34,1.9,1.9,0,0,1,.75-.13,1.83,1.83,0,0,1,.64.1,1.79,1.79,0,0,1,.5.24l.22-.08.29-.07c.11,0,.22,0,.33-.06l.33,0A1.36,1.36,0,0,1,56,71a1.26,1.26,0,0,1,0,.3h-.84a2.26,2.26,0,0,1,.19.42,1.73,1.73,0,0,1,.06.47,1.6,1.6,0,0,1-.13.67,1.38,1.38,0,0,1-.37.49,1.62,1.62,0,0,1-.55.3,1.85,1.85,0,0,1-.67.11,2.22,2.22,0,0,1-.67-.09,1.08,1.08,0,0,0-.35.3.56.56,0,0,0-.1.33.88.88,0,0,0,0,.17.39.39,0,0,0,.11.15.9.9,0,0,0,.24.11,2.06,2.06,0,0,0,.39,0Zm-1.26.54a.89.89,0,0,0-.67.23.84.84,0,0,0-.25.64.61.61,0,0,0,.1.36.6.6,0,0,0,.27.22,1.45,1.45,0,0,0,.4.11,3.79,3.79,0,0,0,.49,0,2.47,2.47,0,0,0,1.29-.28.8.8,0,0,0,.46-.67.54.54,0,0,0-.23-.48,1.71,1.71,0,0,0-.76-.15Zm-.65-3.13a1.15,1.15,0,0,0,.27.77,1.05,1.05,0,0,0,.85.31,1.08,1.08,0,0,0,.85-.31,1.25,1.25,0,0,0,0-1.55,1.09,1.09,0,0,0-.85-.32,1.06,1.06,0,0,0-.85.32A1.16,1.16,0,0,0,52.57,72.15Z"/><path class="cls-1" d="M59,75.3a2,2,0,0,1-.88-.18,1.76,1.76,0,0,1-.64-.5,2.46,2.46,0,0,1-.38-.76,3.66,3.66,0,0,1,0-1.86,2.41,2.41,0,0,1,.38-.75,1.66,1.66,0,0,1,.64-.5,1.9,1.9,0,0,1,.88-.19,1.94,1.94,0,0,1,.89.19,1.71,1.71,0,0,1,.63.5,2.41,2.41,0,0,1,.38.75,3.39,3.39,0,0,1,0,1.86,2.46,2.46,0,0,1-.38.76,1.82,1.82,0,0,1-.63.5A2.08,2.08,0,0,1,59,75.3Zm0-.51a1.2,1.2,0,0,0,1.06-.5,2.26,2.26,0,0,0,.36-1.36,2.31,2.31,0,0,0-.36-1.36A1.2,1.2,0,0,0,59,71.08a1.22,1.22,0,0,0-1.06.49,2.38,2.38,0,0,0-.35,1.36A2.34,2.34,0,0,0,58,74.29,1.23,1.23,0,0,0,59,74.79Z"/><path class="cls-1" d="M62.79,70.67h.54c0,.11,0,.24,0,.4s0,.3,0,.42a2.19,2.19,0,0,1,.23-.33,1.58,1.58,0,0,1,.34-.29,1.4,1.4,0,0,1,.44-.22,1.53,1.53,0,0,1,.54-.09A1.35,1.35,0,0,1,66,71a2.1,2.1,0,0,1,.36,1.31v2.85l-.15,0H66l-.15,0V72.52a1.89,1.89,0,0,0-.24-1.09.79.79,0,0,0-.7-.32,1.48,1.48,0,0,0-.59.12,1.26,1.26,0,0,0-.47.36,1.79,1.79,0,0,0-.32.58,2.69,2.69,0,0,0-.11.79v2.23l-.15,0H63l-.16,0Z"/><path class="cls-1" d="M68.59,71.17H68a.37.37,0,0,1,0-.11.53.53,0,0,1,0-.13.61.61,0,0,1,0-.14.41.41,0,0,1,0-.12h1.15v4.52l-.15,0h-.28l-.15,0Zm-.3-1.61s0-.12,0-.19V69c0-.07,0-.13,0-.17l.2,0h.37l.18,0s0,.1,0,.17a1.28,1.28,0,0,1,0,.18,1.48,1.48,0,0,1,0,.2c0,.07,0,.14,0,.19h-.75Z"/><path class="cls-1" d="M73.67,72.21a1.14,1.14,0,0,0-.28-.86,1.1,1.1,0,0,0-.81-.27,3.24,3.24,0,0,0-.65,0,3.33,3.33,0,0,0-.52.12.87.87,0,0,1-.08-.23,1.59,1.59,0,0,1,0-.29l.57-.12a5.09,5.09,0,0,1,.69,0,1.88,1.88,0,0,1,1.28.38,1.55,1.55,0,0,1,.41,1.18v3l-.75.12a6.15,6.15,0,0,1-.84.06,2.23,2.23,0,0,1-1.3-.33,1.19,1.19,0,0,1-.48-1.06,1.47,1.47,0,0,1,.14-.64,1.43,1.43,0,0,1,.38-.47,1.7,1.7,0,0,1,.59-.28,2.52,2.52,0,0,1,.75-.1l.55,0,.38,0Zm0,.78-.38,0-.43,0a1.86,1.86,0,0,0-1,.25.81.81,0,0,0-.36.71.91.91,0,0,0,.11.47.69.69,0,0,0,.29.27,1.27,1.27,0,0,0,.39.12,2,2,0,0,0,.43,0,4.12,4.12,0,0,0,.51,0l.47-.07Z"/><path class="cls-1" d="M74.86,15.4v-.07c-.64-5.78-4.57-8.41-7.95-8.41a6.25,6.25,0,0,0-2.79.64L61.65,8.8l-.13-1.56V7.17C61,2.25,57.58,0,54.65,0A5.51,5.51,0,0,0,52.2.57L44.06,4.66,35.92.57A5.59,5.59,0,0,0,33.46,0c-2.92,0-6.32,2.25-6.86,7.17l-.17,2-3.16-1.6a6.32,6.32,0,0,0-2.8-.64c-3.37,0-7.3,2.63-7.95,8.41l-.85,10.21v.14c-.19,6.64,5.78,14.44,16.11,16a15.12,15.12,0,0,0,2.08.28H57.52a15,15,0,0,0,2.07-.28c10.33-1.59,16.3-9.39,16.12-16Z"/><path class="cls-2" d="M25.63,26.92,40.9,19.24,22.14,9.8c-2.43-1.22-6.53.44-7.13,5.8l-.84,10.15c-.11,3.85,2.43,8.39,7.25,11.17C19.82,33.19,22.24,28.62,25.63,26.92Z"/><path class="cls-3" d="M72.36,15.6l.84,10.15c.17,5.9-5.87,13.41-16.81,13.75H30c-2.85-.19-5.11-1.15-6.21-3.34-1.22-2.43.53-5.77,3-7L65.23,9.8C67.66,8.58,71.77,10.24,72.36,15.6Z"/><path class="cls-4" d="M43.69,17.84,59.24,10,59,7.45c-.48-4.29-3.77-5.62-5.71-4.64L33.58,12.74l2.89,1.46Z"/><path class="cls-5" d="M41.27,6.07,34.79,2.81c-1.94-1-5.22.35-5.7,4.64l-.24,2.9,1.94,1Z"/></g></g></svg>