<svg xmlns="http://www.w3.org/2000/svg" xmlns:xlink="http://www.w3.org/1999/xlink" viewBox="0 0 25.73 48.11"><defs><style>.cls-1{fill:url(#linear-gradient);}.cls-2{fill:url(#linear-gradient-2);}</style><linearGradient id="linear-gradient" x1="-1.11" y1="34.95" x2="26.02" y2="7.83" gradientUnits="userSpaceOnUse"><stop offset="0" stop-color="#0080c2"/><stop offset="0.08" stop-color="#0088c6"/><stop offset="0.25" stop-color="#0091cb"/><stop offset="0.48" stop-color="#0094cc"/><stop offset="1" stop-color="#3bafd4"/></linearGradient><linearGradient id="linear-gradient-2" x1="6.95" y1="18.76" x2="18.81" y2="6.9" xlink:href="#linear-gradient"/></defs><title>pin</title><g id="Layer_2" data-name="Layer 2"><g id="TU_VIAJE" data-name="TU VIAJE"><path class="cls-1" d="M12.86,0A12.86,12.86,0,0,0,.63,16.83c.91,3.22,11.42,31.28,11.42,31.28S23.21,22.37,24.9,17.36a12.66,12.66,0,0,0,.83-4.5A12.87,12.87,0,0,0,12.86,0Zm0,23A10.1,10.1,0,1,1,23,12.91,10.09,10.09,0,0,1,12.86,23Z"/><path class="cls-2" d="M17.15,5.88H8.57A1.67,1.67,0,0,0,7,7.61v9.33a1.77,1.77,0,0,0,.79,1.49v1c0,.33.53.59,1.18.59s1.18-.26,1.18-.59v-.75h5.55v.75c0,.33.53.59,1.18.59S18,19.75,18,19.42v-1a1.77,1.77,0,0,0,.72-1.45V7.61A1.66,1.66,0,0,0,17.15,5.88Zm-6.77.74h5V7.1h-5Zm1,9.23H8.24V14.69h3.14Zm3.18,2.68h-3v-.92h3Zm3.08-2.68H14.51V14.69h3.13Zm.14-4c0,.11-.21.21-.46.21H8.41c-.25,0-.46-.1-.46-.21V7.75c0-.12.21-.22.46-.22h8.91c.25,0,.46.1.46.22Z"/></g></g></svg>