<svg xmlns="http://www.w3.org/2000/svg" viewBox="0 0 46 51.86"><defs><style>.cls-1{fill:#fff;}.cls-2{fill:#1d1d1b;}.cls-3{fill:#fc0;}</style></defs><title>precaucion0</title><g id="Layer_2" data-name="Layer 2"><g id="Modo_de_aislamiento" data-name="Modo de aislamiento"><path class="cls-1" d="M45.5,26.2A22.5,22.5,0,1,1,23,3.7,22.51,22.51,0,0,1,45.5,26.2Z"/><path class="cls-2" d="M23,49.2a23,23,0,1,1,23-23A23,23,0,0,1,23,49.2Zm0-45a22,22,0,1,0,22,22A22,22,0,0,0,23,4.2Z"/><rect x="-7" y="24.2" width="59.4" height="3.47" transform="translate(-11.38 31.03) rotate(-57.31)"/><rect class="cls-3" x="10.34" y="36.9" width="8.42" height="3.46" transform="translate(-25.82 29.99) rotate(-57.28)"/><rect class="cls-3" x="19.7" y="22.32" width="8.42" height="3.46" transform="translate(-9.25 31.18) rotate(-57.3)"/><rect class="cls-3" x="28.52" y="8.58" width="8.42" height="3.47" transform="translate(6.37 32.28) rotate(-57.29)"/><rect x="20.97" y="-3.77" width="3.47" height="59.4" transform="translate(-10.41 16.37) rotate(-32.69)"/><rect class="cls-3" x="29.13" y="34.43" width="3.47" height="8.42" transform="translate(-15.98 22.81) rotate(-32.71)"/><rect class="cls-3" x="19.76" y="19.85" width="3.47" height="8.42" transform="matrix(0.84, -0.54, 0.54, 0.84, -9.59, 15.42)"/><rect class="cls-3" x="10.94" y="6.1" width="3.47" height="8.42" transform="translate(-3.56 8.48) rotate(-32.71)"/></g></g></svg>